<?xml version="1.0" encoding="UTF-8" standalone="no"?>
<!DOCTYPE svg PUBLIC "-//W3C//DTD SVG 1.1//EN"
 "http://www.w3.org/Graphics/SVG/1.1/DTD/svg11.dtd">
<!-- Generated by graphviz version 2.44.1 (20200629.0846)
 -->
<!-- Title: G Pages: 1 -->
<svg width="269pt" height="212pt"
 viewBox="0.00 0.00 269.00 212.00" xmlns="http://www.w3.org/2000/svg" xmlns:xlink="http://www.w3.org/1999/xlink">
<g id="graph0" class="graph" transform="scale(1 1) rotate(0) translate(4 208)">
<title>G</title>
<!-- n1p1 -->
<!-- n1p2 -->
<!-- n1p1&#45;&gt;n1p2 -->
<!-- n3 -->
<!-- gt -->
<g id="n3" class="node">
<title>n3</title>
<polygon fill="none" stroke="black" points="83.5,-120 83.5,-168 104.5,-168 104.5,-120 83.5,-120"/>
<text text-anchor="start" x="88.5" y="-140.3" font-family="Serif" font-size="14.00">gt</text>
</g>
<!-- n1p1&#45;&gt;n3 -->
<!-- Number -->
<g id="e1" class="edge">
<title>n1p1:e&#45;&gt;n3:w</title>
<path fill="none" stroke="black" d="M1,-192C38.94,-192 42.89,-159.3 77.64,-156.23"/>
<polygon fill="black" stroke="black" points="78.08,-157.96 83,-156 77.93,-154.47 78.08,-157.96"/>
<text text-anchor="middle" x="42" y="-191.8" font-family="Serif" font-size="14.00">Number</text>
</g>
<!-- n1p3 -->
<!-- n1p2&#45;&gt;n1p3 -->
<!-- n1p2&#45;&gt;n3 -->
<!-- Number -->
<g id="e2" class="edge">
<title>n1p2:e&#45;&gt;n3:w</title>
<path fill="none" stroke="black" d="M1,-132C35.59,-132 45.56,-132 77.65,-132"/>
<polygon fill="black" stroke="black" points="78,-133.75 83,-132 78,-130.25 78,-133.75"/>
<text text-anchor="middle" x="42" y="-135.8" font-family="Serif" font-size="14.00">Number</text>
</g>
<!-- n1p4 -->
<!-- n1p3&#45;&gt;n1p4 -->
<!-- n4 -->
<!-- lt -->
<g id="n4" class="node">
<title>n4</title>
<polygon fill="none" stroke="black" points="84.5,-36 84.5,-84 102.5,-84 102.5,-36 84.5,-36"/>
<text text-anchor="start" x="89.5" y="-56.3" font-family="Serif" font-size="14.00">lt</text>
</g>
<!-- n1p3&#45;&gt;n4 -->
<!-- Number -->
<g id="e3" class="edge">
<title>n1p3:e&#45;&gt;n4:w</title>
<path fill="none" stroke="black" d="M1,-72C35.8,-72 45.83,-72 78.12,-72"/>
<polygon fill="black" stroke="black" points="78.5,-73.75 83.5,-72 78.5,-70.25 78.5,-73.75"/>
<text text-anchor="middle" x="42" y="-75.8" font-family="Serif" font-size="14.00">Number</text>
</g>
<!-- n1p4&#45;&gt;n4 -->
<!-- Number -->
<g id="e4" class="edge">
<title>n1p4:e&#45;&gt;n4:w</title>
<path fill="none" stroke="black" d="M1,-12C39.13,-12 43.18,-44.7 78.11,-47.77"/>
<polygon fill="black" stroke="black" points="78.43,-49.54 83.5,-48 78.58,-46.04 78.43,-49.54"/>
<text text-anchor="middle" x="42" y="-48.8" font-family="Serif" font-size="14.00">Number</text>
</g>
<!-- n2p1 -->
<!-- n5 -->
<!-- and -->
<g id="n5" class="node">
<title>n5</title>
<polygon fill="none" stroke="black" points="167,-78 167,-126 197,-126 197,-78 167,-78"/>
<text text-anchor="start" x="172" y="-98.3" font-family="Serif" font-size="14.00">and</text>
</g>
<!-- n3&#45;&gt;n5 -->
<!-- Bool -->
<g id="e5" class="edge">
<title>n3:e&#45;&gt;n5:w</title>
<path fill="none" stroke="black" d="M104,-144C133.2,-144 135.77,-117.41 161.85,-114.3"/>
<polygon fill="black" stroke="black" points="162.11,-116.03 167,-114 161.91,-112.54 162.11,-116.03"/>
<text text-anchor="middle" x="135.5" y="-142.8" font-family="Serif" font-size="14.00">Bool</text>
</g>
<!-- n4&#45;&gt;n5 -->
<!-- Bool -->
<g id="e6" class="edge">
<title>n4:e&#45;&gt;n5:w</title>
<path fill="none" stroke="black" d="M103.5,-60C132.88,-60 135.56,-86.59 161.81,-89.7"/>
<polygon fill="black" stroke="black" points="161.91,-91.46 167,-90 162.11,-87.97 161.91,-91.46"/>
<text text-anchor="middle" x="135.5" y="-89.8" font-family="Serif" font-size="14.00">Bool</text>
</g>
<!-- n5&#45;&gt;n2p1 -->
<!-- Bool -->
<g id="e7" class="edge">
<title>n5:e&#45;&gt;n2p1:w</title>
<path fill="none" stroke="black" d="M197,-102C223.25,-102 231.04,-102 254.99,-102"/>
<polygon fill="black" stroke="black" points="255,-103.75 260,-102 255,-100.25 255,-103.75"/>
<text text-anchor="middle" x="228.5" y="-105.8" font-family="Serif" font-size="14.00">Bool</text>
</g>
</g>
</svg>
