<?xml version="1.0" encoding="UTF-8" standalone="no"?>
<!DOCTYPE svg PUBLIC "-//W3C//DTD SVG 1.1//EN"
 "http://www.w3.org/Graphics/SVG/1.1/DTD/svg11.dtd">
<!-- Generated by graphviz version 2.44.1 (20200629.0846)
 -->
<!-- Title: G Pages: 1 -->
<svg width="1026pt" height="336pt"
 viewBox="0.00 0.00 1026.00 335.50" xmlns="http://www.w3.org/2000/svg" xmlns:xlink="http://www.w3.org/1999/xlink">
<g id="graph0" class="graph" transform="scale(1 1) rotate(0) translate(4 331.5)">
<title>G</title>
<!-- n2p1 -->
<!-- n3 -->
<!-- t1 -->
<g id="n3" class="node">
<title>n3</title>
<polygon fill="none" stroke="black" points="19.5,-299.5 19.5,-324.5 40.5,-324.5 40.5,-299.5 19.5,-299.5"/>
<text text-anchor="start" x="24.5" y="-308.3" font-family="Serif" font-size="14.00">t1</text>
</g>
<!-- n5 -->
<!-- cond -->
<g id="n5" class="node">
<title>n5</title>
<polygon fill="none" stroke="black" points="122.5,-265.5 122.5,-313.5 159.5,-313.5 159.5,-265.5 122.5,-265.5"/>
<text text-anchor="start" x="127.5" y="-285.8" font-family="Serif" font-size="14.00">cond</text>
</g>
<!-- n3&#45;&gt;n5 -->
<!-- Task -->
<g id="e1" class="edge">
<title>n3:e&#45;&gt;n5:w</title>
<path fill="none" stroke="black" d="M41.5,-311.5C75.72,-311.5 85.02,-302.49 116.71,-301.57"/>
<polygon fill="black" stroke="black" points="117.03,-303.32 122,-301.5 116.98,-299.82 117.03,-303.32"/>
<text text-anchor="middle" x="90.5" y="-310.3" font-family="Serif" font-size="14.00">Task</text>
</g>
<!-- n4 -->
<!-- observed -->
<g id="n4" class="node">
<title>n4</title>
<polygon fill="none" stroke="black" points="0.5,-256.5 0.5,-281.5 59.5,-281.5 59.5,-256.5 0.5,-256.5"/>
<text text-anchor="start" x="5.5" y="-265.3" font-family="Serif" font-size="14.00">observed</text>
</g>
<!-- n4&#45;&gt;n5 -->
<!-- Bool -->
<g id="e2" class="edge">
<title>n4:e&#45;&gt;n5:w</title>
<path fill="none" stroke="black" d="M59,-268.5C79.18,-268.5 84.05,-271.51 104,-274.5 110.02,-275.4 112.57,-276.64 116.89,-277.2"/>
<polygon fill="black" stroke="black" points="116.91,-278.95 122,-277.5 117.11,-275.46 116.91,-278.95"/>
<text text-anchor="middle" x="90.5" y="-278.3" font-family="Serif" font-size="14.00">Bool</text>
</g>
<!-- n28 -->
<!-- junction -->
<g id="n28" class="node">
<title>n28</title>
<ellipse fill="black" stroke="black" cx="279.5" cy="-289.5" rx="2" ry="2"/>
</g>
<!-- n5&#45;&gt;n28 -->
<!-- Condition -->
<g id="e3" class="edge">
<title>n5:e&#45;&gt;n28</title>
<path fill="none" stroke="black" d="M159,-289.5C202.22,-289.5 254.24,-289.5 272.11,-289.5"/>
<polygon fill="black" stroke="black" points="272.32,-291.25 277.32,-289.5 272.32,-287.75 272.32,-291.25"/>
<text text-anchor="middle" x="204.5" y="-293.3" font-family="Serif" font-size="14.00">Condition</text>
</g>
<!-- n6 -->
<!-- t2 -->
<g id="n6" class="node">
<title>n6</title>
<polygon fill="none" stroke="black" points="427,-128.5 427,-153.5 448,-153.5 448,-128.5 427,-128.5"/>
<text text-anchor="start" x="432" y="-137.3" font-family="Serif" font-size="14.00">t2</text>
</g>
<!-- n8 -->
<!-- cond -->
<g id="n8" class="node">
<title>n8</title>
<polygon fill="none" stroke="black" points="544,-95.5 544,-143.5 581,-143.5 581,-95.5 544,-95.5"/>
<text text-anchor="start" x="549" y="-115.8" font-family="Serif" font-size="14.00">cond</text>
</g>
<!-- n6&#45;&gt;n8 -->
<!-- Task -->
<g id="e4" class="edge">
<title>n6:e&#45;&gt;n8:w</title>
<path fill="none" stroke="black" d="M449,-140.5C489.17,-140.5 500.11,-132.26 537.76,-131.55"/>
<polygon fill="black" stroke="black" points="538.02,-133.3 543,-131.5 537.98,-129.8 538.02,-133.3"/>
<text text-anchor="middle" x="505.5" y="-140.3" font-family="Serif" font-size="14.00">Task</text>
</g>
<!-- n7 -->
<!-- observed -->
<g id="n7" class="node">
<title>n7</title>
<polygon fill="none" stroke="black" points="408,-85.5 408,-110.5 467,-110.5 467,-85.5 408,-85.5"/>
<text text-anchor="start" x="413" y="-94.3" font-family="Serif" font-size="14.00">observed</text>
</g>
<!-- n7&#45;&gt;n8 -->
<!-- Bool -->
<g id="e5" class="edge">
<title>n7:e&#45;&gt;n8:w</title>
<path fill="none" stroke="black" d="M468,-97.5C490.82,-97.5 496.4,-100.29 519,-103.5 527.7,-104.74 530.97,-106.6 537.69,-107.26"/>
<polygon fill="black" stroke="black" points="537.93,-109.02 543,-107.5 538.08,-105.53 537.93,-109.02"/>
<text text-anchor="middle" x="505.5" y="-107.3" font-family="Serif" font-size="14.00">Bool</text>
</g>
<!-- n23 -->
<!-- experiment -->
<g id="n23" class="node">
<title>n23</title>
<polygon fill="none" stroke="black" points="682,-107.5 682,-132.5 754,-132.5 754,-107.5 682,-107.5"/>
<text text-anchor="start" x="687" y="-116.3" font-family="Serif" font-size="14.00">experiment</text>
</g>
<!-- n8&#45;&gt;n23 -->
<!-- Condition -->
<g id="e6" class="edge">
<title>n8:e&#45;&gt;n23:w</title>
<path fill="none" stroke="black" d="M582,-119.5C624.28,-119.5 636.09,-119.5 675.99,-119.5"/>
<polygon fill="black" stroke="black" points="676,-121.25 681,-119.5 676,-117.75 676,-121.25"/>
<text text-anchor="middle" x="632.5" y="-123.3" font-family="Serif" font-size="14.00">Condition</text>
</g>
<!-- n9 -->
<!-- t1 -->
<g id="n9" class="node">
<title>n9</title>
<polygon fill="none" stroke="black" points="427,-214.5 427,-239.5 448,-239.5 448,-214.5 427,-214.5"/>
<text text-anchor="start" x="432" y="-223.3" font-family="Serif" font-size="14.00">t1</text>
</g>
<!-- n12 -->
<!-- cond -->
<g id="n12" class="node">
<title>n12</title>
<polygon fill="none" stroke="black" points="544,-182.5 544,-230.5 581,-230.5 581,-182.5 544,-182.5"/>
<text text-anchor="start" x="549" y="-202.8" font-family="Serif" font-size="14.00">cond</text>
</g>
<!-- n9&#45;&gt;n12 -->
<!-- Task -->
<g id="e7" class="edge">
<title>n9:e&#45;&gt;n12:w</title>
<path fill="none" stroke="black" d="M449,-226.5C489.13,-226.5 500.14,-219.17 537.77,-218.54"/>
<polygon fill="black" stroke="black" points="538.01,-220.29 543,-218.5 537.99,-216.79 538.01,-220.29"/>
<text text-anchor="middle" x="505.5" y="-226.3" font-family="Serif" font-size="14.00">Task</text>
</g>
<!-- n10 -->
<!-- observed -->
<g id="n10" class="node">
<title>n10</title>
<polygon fill="none" stroke="black" points="250.5,-171.5 250.5,-196.5 309.5,-196.5 309.5,-171.5 250.5,-171.5"/>
<text text-anchor="start" x="255.5" y="-180.3" font-family="Serif" font-size="14.00">observed</text>
</g>
<!-- n11 -->
<!-- neg -->
<g id="n11" class="node">
<title>n11</title>
<polygon fill="none" stroke="black" points="422,-171.5 422,-196.5 452,-196.5 452,-171.5 422,-171.5"/>
<text text-anchor="start" x="427" y="-180.3" font-family="Serif" font-size="14.00">neg</text>
</g>
<!-- n10&#45;&gt;n11 -->
<!-- Bool -->
<g id="e8" class="edge">
<title>n10:e&#45;&gt;n11:w</title>
<path fill="none" stroke="black" d="M309,-183.5C357.03,-183.5 370.3,-183.5 415.89,-183.5"/>
<polygon fill="black" stroke="black" points="416,-185.25 421,-183.5 416,-181.75 416,-185.25"/>
<text text-anchor="middle" x="354.5" y="-187.3" font-family="Serif" font-size="14.00">Bool</text>
</g>
<!-- n11&#45;&gt;n12 -->
<!-- Bool -->
<g id="e9" class="edge">
<title>n11:e&#45;&gt;n12:w</title>
<path fill="none" stroke="black" d="M453,-183.5C491.57,-183.5 501.84,-193.57 537.97,-194.44"/>
<polygon fill="black" stroke="black" points="537.98,-196.19 543,-194.5 538.02,-192.69 537.98,-196.19"/>
<text text-anchor="middle" x="505.5" y="-196.3" font-family="Serif" font-size="14.00">Bool</text>
</g>
<!-- n22 -->
<!-- experiment -->
<g id="n22" class="node">
<title>n22</title>
<polygon fill="none" stroke="black" points="682,-194.5 682,-219.5 754,-219.5 754,-194.5 682,-194.5"/>
<text text-anchor="start" x="687" y="-203.3" font-family="Serif" font-size="14.00">experiment</text>
</g>
<!-- n12&#45;&gt;n22 -->
<!-- Condition -->
<g id="e10" class="edge">
<title>n12:e&#45;&gt;n22:w</title>
<path fill="none" stroke="black" d="M582,-206.5C624.28,-206.5 636.09,-206.5 675.99,-206.5"/>
<polygon fill="black" stroke="black" points="676,-208.25 681,-206.5 676,-204.75 676,-208.25"/>
<text text-anchor="middle" x="632.5" y="-210.3" font-family="Serif" font-size="14.00">Condition</text>
</g>
<!-- n13 -->
<!-- t2 -->
<g id="n13" class="node">
<title>n13</title>
<polygon fill="none" stroke="black" points="427,-42.5 427,-67.5 448,-67.5 448,-42.5 427,-42.5"/>
<text text-anchor="start" x="432" y="-51.3" font-family="Serif" font-size="14.00">t2</text>
</g>
<!-- n16 -->
<!-- cond -->
<g id="n16" class="node">
<title>n16</title>
<polygon fill="none" stroke="black" points="544,-18.5 544,-66.5 581,-66.5 581,-18.5 544,-18.5"/>
<text text-anchor="start" x="549" y="-38.8" font-family="Serif" font-size="14.00">cond</text>
</g>
<!-- n13&#45;&gt;n16 -->
<!-- Task -->
<g id="e11" class="edge">
<title>n13:e&#45;&gt;n16:w</title>
<path fill="none" stroke="black" d="M449,-54.5C488.98,-54.5 500.27,-54.5 537.78,-54.5"/>
<polygon fill="black" stroke="black" points="538,-56.25 543,-54.5 538,-52.75 538,-56.25"/>
<text text-anchor="middle" x="505.5" y="-58.3" font-family="Serif" font-size="14.00">Task</text>
</g>
<!-- n14 -->
<!-- observed -->
<g id="n14" class="node">
<title>n14</title>
<polygon fill="none" stroke="black" points="250.5,0.5 250.5,-24.5 309.5,-24.5 309.5,0.5 250.5,0.5"/>
<text text-anchor="start" x="255.5" y="-8.3" font-family="Serif" font-size="14.00">observed</text>
</g>
<!-- n15 -->
<!-- neg -->
<g id="n15" class="node">
<title>n15</title>
<polygon fill="none" stroke="black" points="422,0.5 422,-24.5 452,-24.5 452,0.5 422,0.5"/>
<text text-anchor="start" x="427" y="-8.3" font-family="Serif" font-size="14.00">neg</text>
</g>
<!-- n14&#45;&gt;n15 -->
<!-- Bool -->
<g id="e12" class="edge">
<title>n14:e&#45;&gt;n15:w</title>
<path fill="none" stroke="black" d="M309,-11.5C357.03,-11.5 370.3,-11.5 415.89,-11.5"/>
<polygon fill="black" stroke="black" points="416,-13.25 421,-11.5 416,-9.75 416,-13.25"/>
<text text-anchor="middle" x="354.5" y="-15.3" font-family="Serif" font-size="14.00">Bool</text>
</g>
<!-- n15&#45;&gt;n16 -->
<!-- Bool -->
<g id="e13" class="edge">
<title>n15:e&#45;&gt;n16:w</title>
<path fill="none" stroke="black" d="M453,-11.5C492.13,-11.5 501.35,-28.9 537.91,-30.4"/>
<polygon fill="black" stroke="black" points="537.97,-32.15 543,-30.5 538.04,-28.65 537.97,-32.15"/>
<text text-anchor="middle" x="505.5" y="-32.3" font-family="Serif" font-size="14.00">Bool</text>
</g>
<!-- n24 -->
<!-- experiment -->
<g id="n24" class="node">
<title>n24</title>
<polygon fill="none" stroke="black" points="682,-56.5 682,-81.5 754,-81.5 754,-56.5 682,-56.5"/>
<text text-anchor="start" x="687" y="-65.3" font-family="Serif" font-size="14.00">experiment</text>
</g>
<!-- n16&#45;&gt;n24 -->
<!-- Condition -->
<g id="e14" class="edge">
<title>n16:e&#45;&gt;n24:w</title>
<path fill="none" stroke="black" d="M582,-42.5C625.72,-42.5 634.82,-66.51 675.84,-68.38"/>
<polygon fill="black" stroke="black" points="675.96,-70.14 681,-68.5 676.04,-66.64 675.96,-70.14"/>
<text text-anchor="middle" x="632.5" y="-69.3" font-family="Serif" font-size="14.00">Condition</text>
</g>
<!-- n17 -->
<!-- task -->
<g id="n17" class="node">
<title>n17</title>
<polygon fill="none" stroke="black" points="421,-257.5 421,-282.5 453,-282.5 453,-257.5 421,-257.5"/>
<text text-anchor="start" x="426" y="-266.3" font-family="Serif" font-size="14.00">task</text>
</g>
<!-- n20 -->
<!-- anxiety -->
<g id="n20" class="node">
<title>n20</title>
<polygon fill="none" stroke="black" points="537,-257.5 537,-282.5 587,-282.5 587,-257.5 537,-257.5"/>
<text text-anchor="start" x="542" y="-266.3" font-family="Serif" font-size="14.00">anxiety</text>
</g>
<!-- n17&#45;&gt;n20 -->
<!-- Task -->
<g id="e15" class="edge">
<title>n17:e&#45;&gt;n20:w</title>
<path fill="none" stroke="black" d="M454,-269.5C489.16,-269.5 499.19,-269.5 531.99,-269.5"/>
<polygon fill="black" stroke="black" points="532,-271.25 537,-269.5 532,-267.75 532,-271.25"/>
<text text-anchor="middle" x="505.5" y="-273.3" font-family="Serif" font-size="14.00">Task</text>
</g>
<!-- n18 -->
<!-- observation -->
<g id="n18" class="node">
<title>n18</title>
<polygon fill="none" stroke="black" points="400,-300.5 400,-325.5 474,-325.5 474,-300.5 400,-300.5"/>
<text text-anchor="start" x="405" y="-309.3" font-family="Serif" font-size="14.00">observation</text>
</g>
<!-- n19 -->
<!-- arousal -->
<g id="n19" class="node">
<title>n19</title>
<polygon fill="none" stroke="black" points="537,-300.5 537,-325.5 587,-325.5 587,-300.5 537,-300.5"/>
<text text-anchor="start" x="542" y="-309.3" font-family="Serif" font-size="14.00">arousal</text>
</g>
<!-- n18&#45;&gt;n19 -->
<!-- Bool -->
<g id="e16" class="edge">
<title>n18:e&#45;&gt;n19:w</title>
<path fill="none" stroke="black" d="M474,-312.5C500.25,-312.5 508.04,-312.5 531.99,-312.5"/>
<polygon fill="black" stroke="black" points="532,-314.25 537,-312.5 532,-310.75 532,-314.25"/>
<text text-anchor="middle" x="505.5" y="-316.3" font-family="Serif" font-size="14.00">Bool</text>
</g>
<!-- n21 -->
<!-- performance -->
<g id="n21" class="node">
<title>n21</title>
<polygon fill="none" stroke="black" points="678,-257.5 678,-305.5 758,-305.5 758,-257.5 678,-257.5"/>
<text text-anchor="start" x="683" y="-277.8" font-family="Serif" font-size="14.00">performance</text>
</g>
<!-- n19&#45;&gt;n21 -->
<!-- Number -->
<g id="e17" class="edge">
<title>n19:e&#45;&gt;n21:w</title>
<path fill="none" stroke="black" d="M587,-312.5C626.54,-312.5 635.9,-295.1 672.85,-293.6"/>
<polygon fill="black" stroke="black" points="673.04,-295.35 678,-293.5 672.97,-291.85 673.04,-295.35"/>
<text text-anchor="middle" x="632.5" y="-314.3" font-family="Serif" font-size="14.00">Number</text>
</g>
<!-- n20&#45;&gt;n21 -->
<!-- Number -->
<g id="e18" class="edge">
<title>n20:e&#45;&gt;n21:w</title>
<path fill="none" stroke="black" d="M587,-269.5C625.71,-269.5 636.63,-269.5 672.95,-269.5"/>
<polygon fill="black" stroke="black" points="673,-271.25 678,-269.5 673,-267.75 673,-271.25"/>
<text text-anchor="middle" x="632.5" y="-273.3" font-family="Serif" font-size="14.00">Number</text>
</g>
<!-- n25 -->
<!-- gt -->
<g id="n25" class="node">
<title>n25</title>
<polygon fill="none" stroke="black" points="840.5,-194.5 840.5,-242.5 861.5,-242.5 861.5,-194.5 840.5,-194.5"/>
<text text-anchor="start" x="845.5" y="-214.8" font-family="Serif" font-size="14.00">gt</text>
</g>
<!-- n21&#45;&gt;n25 -->
<!-- Number -->
<g id="e19" class="edge">
<title>n21:e&#45;&gt;n25:w</title>
<path fill="none" stroke="black" d="M758,-281.5C799.07,-281.5 797.33,-234.79 834.72,-230.77"/>
<polygon fill="black" stroke="black" points="835.1,-232.51 840,-230.5 834.92,-229.01 835.1,-232.51"/>
<text text-anchor="middle" x="799" y="-280.3" font-family="Serif" font-size="14.00">Number</text>
</g>
<!-- n22&#45;&gt;n25 -->
<!-- Number -->
<g id="e20" class="edge">
<title>n22:e&#45;&gt;n25:w</title>
<path fill="none" stroke="black" d="M755,-206.5C791.01,-206.5 801.27,-206.5 834.87,-206.5"/>
<polygon fill="black" stroke="black" points="835,-208.25 840,-206.5 835,-204.75 835,-208.25"/>
<text text-anchor="middle" x="799" y="-210.3" font-family="Serif" font-size="14.00">Number</text>
</g>
<!-- n26 -->
<!-- lt -->
<g id="n26" class="node">
<title>n26</title>
<polygon fill="none" stroke="black" points="841.5,-83.5 841.5,-131.5 859.5,-131.5 859.5,-83.5 841.5,-83.5"/>
<text text-anchor="start" x="846.5" y="-103.8" font-family="Serif" font-size="14.00">lt</text>
</g>
<!-- n23&#45;&gt;n26 -->
<!-- Number -->
<g id="e21" class="edge">
<title>n23:e&#45;&gt;n26:w</title>
<path fill="none" stroke="black" d="M755,-119.5C791.22,-119.5 801.55,-119.5 835.34,-119.5"/>
<polygon fill="black" stroke="black" points="835.5,-121.25 840.5,-119.5 835.5,-117.75 835.5,-121.25"/>
<text text-anchor="middle" x="799" y="-123.3" font-family="Serif" font-size="14.00">Number</text>
</g>
<!-- n24&#45;&gt;n26 -->
<!-- Number -->
<g id="e22" class="edge">
<title>n24:e&#45;&gt;n26:w</title>
<path fill="none" stroke="black" d="M755,-68.5C792.98,-68.5 800.03,-93.03 835.11,-95.33"/>
<polygon fill="black" stroke="black" points="835.45,-97.09 840.5,-95.5 835.56,-93.59 835.45,-97.09"/>
<text text-anchor="middle" x="799" y="-96.3" font-family="Serif" font-size="14.00">Number</text>
</g>
<!-- n27 -->
<!-- and -->
<g id="n27" class="node">
<title>n27</title>
<polygon fill="none" stroke="black" points="924,-133.5 924,-181.5 954,-181.5 954,-133.5 924,-133.5"/>
<text text-anchor="start" x="929" y="-153.8" font-family="Serif" font-size="14.00">and</text>
</g>
<!-- n25&#45;&gt;n27 -->
<!-- Bool -->
<g id="e23" class="edge">
<title>n25:e&#45;&gt;n27:w</title>
<path fill="none" stroke="black" d="M861,-218.5C894.67,-218.5 889.22,-174.35 918.92,-169.87"/>
<polygon fill="black" stroke="black" points="919.14,-171.61 924,-169.5 918.89,-168.11 919.14,-171.61"/>
<text text-anchor="middle" x="892.5" y="-215.3" font-family="Serif" font-size="14.00">Bool</text>
</g>
<!-- n26&#45;&gt;n27 -->
<!-- Bool -->
<g id="e24" class="edge">
<title>n26:e&#45;&gt;n27:w</title>
<path fill="none" stroke="black" d="M860.5,-107.5C891.59,-107.5 891.25,-141.46 918.91,-145.17"/>
<polygon fill="black" stroke="black" points="918.9,-146.92 924,-145.5 919.12,-143.43 918.9,-146.92"/>
<text text-anchor="middle" x="892.5" y="-143.3" font-family="Serif" font-size="14.00">Bool</text>
</g>
<!-- n27&#45;&gt;n2p1 -->
<!-- Bool -->
<g id="e25" class="edge">
<title>n27:e&#45;&gt;n2p1:w</title>
<path fill="none" stroke="black" d="M954,-157.5C980.25,-157.5 988.04,-157.5 1011.99,-157.5"/>
<polygon fill="black" stroke="black" points="1012,-159.25 1017,-157.5 1012,-155.75 1012,-159.25"/>
<text text-anchor="middle" x="985.5" y="-161.3" font-family="Serif" font-size="14.00">Bool</text>
</g>
<!-- n28&#45;&gt;n17 -->
<!-- Condition -->
<g id="e26" class="edge">
<title>n28&#45;&gt;n17:w</title>
<path fill="none" stroke="black" d="M281.62,-288.98C286.7,-286.64 308.21,-277.06 327,-273.5 365.9,-266.13 377.63,-269.2 414.83,-269.48"/>
<polygon fill="black" stroke="black" points="414.99,-271.23 420,-269.5 415.01,-267.73 414.99,-271.23"/>
<text text-anchor="middle" x="354.5" y="-277.3" font-family="Serif" font-size="14.00">Condition</text>
</g>
<!-- n28&#45;&gt;n18 -->
<!-- Condition -->
<g id="e27" class="edge">
<title>n28&#45;&gt;n18:w</title>
<path fill="none" stroke="black" d="M281.66,-289.9C290.34,-292.85 346.02,-311.15 394.71,-312.43"/>
<polygon fill="black" stroke="black" points="394.98,-314.18 400,-312.5 395.02,-310.68 394.98,-314.18"/>
<text text-anchor="middle" x="354.5" y="-315.3" font-family="Serif" font-size="14.00">Condition</text>
</g>
</g>
</svg>
