<?xml version="1.0" encoding="UTF-8" standalone="no"?>
<!DOCTYPE svg PUBLIC "-//W3C//DTD SVG 1.1//EN"
 "http://www.w3.org/Graphics/SVG/1.1/DTD/svg11.dtd">
<!-- Generated by graphviz version 2.44.1 (20200629.0846)
 -->
<!-- Title: G Pages: 1 -->
<svg width="367pt" height="94pt"
 viewBox="0.00 0.00 367.00 94.00" xmlns="http://www.w3.org/2000/svg" xmlns:xlink="http://www.w3.org/1999/xlink">
<g id="graph0" class="graph" transform="scale(1 1) rotate(0) translate(4 90)">
<title>G</title>
<!-- n1p1 -->
<!-- n1p2 -->
<!-- n1p1&#45;&gt;n1p2 -->
<!-- n3 -->
<!-- arousal -->
<g id="n3" class="node">
<title>n3</title>
<polygon fill="none" stroke="black" points="64,-57 64,-82 114,-82 114,-57 64,-57"/>
<text text-anchor="start" x="69" y="-65.8" font-family="Serif" font-size="14.00">arousal</text>
</g>
<!-- n1p1&#45;&gt;n3 -->
<!-- Bool -->
<g id="e1" class="edge">
<title>n1p1:e&#45;&gt;n3:w</title>
<path fill="none" stroke="black" d="M1,-72C27.28,-72 35.02,-69.36 58.98,-69.03"/>
<polygon fill="black" stroke="black" points="59.01,-70.78 64,-69 58.99,-67.28 59.01,-70.78"/>
<text text-anchor="middle" x="32.5" y="-74.8" font-family="Serif" font-size="14.00">Bool</text>
</g>
<!-- n4 -->
<!-- anxiety -->
<g id="n4" class="node">
<title>n4</title>
<polygon fill="none" stroke="black" points="64,-12 64,-37 114,-37 114,-12 64,-12"/>
<text text-anchor="start" x="69" y="-20.8" font-family="Serif" font-size="14.00">anxiety</text>
</g>
<!-- n1p2&#45;&gt;n4 -->
<!-- Task -->
<g id="e2" class="edge">
<title>n1p2:e&#45;&gt;n4:w</title>
<path fill="none" stroke="black" d="M1,-12C27.72,-12 34.66,-22.55 58.91,-23.87"/>
<polygon fill="black" stroke="black" points="58.96,-25.62 64,-24 59.05,-22.12 58.96,-25.62"/>
<text text-anchor="middle" x="32.5" y="-25.8" font-family="Serif" font-size="14.00">Task</text>
</g>
<!-- n2p1 -->
<!-- n5 -->
<!-- performance -->
<g id="n5" class="node">
<title>n5</title>
<polygon fill="none" stroke="black" points="196,-21 196,-69 276,-69 276,-21 196,-21"/>
<text text-anchor="start" x="201" y="-41.3" font-family="Serif" font-size="14.00">performance</text>
</g>
<!-- n3&#45;&gt;n5 -->
<!-- Number -->
<g id="e3" class="edge">
<title>n3:e&#45;&gt;n5:w</title>
<path fill="none" stroke="black" d="M114,-69C148.96,-69 158.25,-58.19 190.6,-57.09"/>
<polygon fill="black" stroke="black" points="191.03,-58.83 196,-57 190.97,-55.33 191.03,-58.83"/>
<text text-anchor="middle" x="155" y="-70.8" font-family="Serif" font-size="14.00">Number</text>
</g>
<!-- n4&#45;&gt;n5 -->
<!-- Number -->
<g id="e4" class="edge">
<title>n4:e&#45;&gt;n5:w</title>
<path fill="none" stroke="black" d="M114,-24C142.5,-24 149.9,-23.27 178,-28 184.14,-29.03 186.53,-31.33 190.84,-32.41"/>
<polygon fill="black" stroke="black" points="190.83,-34.17 196,-33 191.23,-30.7 190.83,-34.17"/>
<text text-anchor="middle" x="155" y="-31.8" font-family="Serif" font-size="14.00">Number</text>
</g>
<!-- n5&#45;&gt;n2p1 -->
<!-- Number -->
<g id="e5" class="edge">
<title>n5:e&#45;&gt;n2p1:w</title>
<path fill="none" stroke="black" d="M276,-45C310.59,-45 320.56,-45 352.65,-45"/>
<polygon fill="black" stroke="black" points="353,-46.75 358,-45 353,-43.25 353,-46.75"/>
<text text-anchor="middle" x="317" y="-48.8" font-family="Serif" font-size="14.00">Number</text>
</g>
</g>
</svg>
