<?xml version="1.0" encoding="UTF-8" standalone="no"?>
<!DOCTYPE svg PUBLIC "-//W3C//DTD SVG 1.1//EN"
 "http://www.w3.org/Graphics/SVG/1.1/DTD/svg11.dtd">
<!-- Generated by graphviz version 2.44.1 (20200629.0846)
 -->
<!-- Title: G Pages: 1 -->
<svg width="462pt" height="162pt"
 viewBox="0.00 0.00 462.00 162.00" xmlns="http://www.w3.org/2000/svg" xmlns:xlink="http://www.w3.org/1999/xlink">
<g id="graph0" class="graph" transform="scale(1 1) rotate(0) translate(4 158)">
<title>G</title>
<!-- n2p1 -->
<!-- n3 -->
<!-- manipulate -->
<g id="n3" class="node">
<title>n3</title>
<polygon fill="none" stroke="black" points="0.5,-27.5 0.5,-123.5 71.5,-123.5 71.5,-27.5 0.5,-27.5"/>
<text text-anchor="start" x="5.5" y="-71.8" font-family="Serif" font-size="14.00">manipulate</text>
</g>
<!-- n4 -->
<!-- experiment -->
<g id="n4" class="node">
<title>n4</title>
<polygon fill="none" stroke="black" points="162,-128.5 162,-153.5 234,-153.5 234,-128.5 162,-128.5"/>
<text text-anchor="start" x="167" y="-137.3" font-family="Serif" font-size="14.00">experiment</text>
</g>
<!-- n3&#45;&gt;n4 -->
<!-- Condition -->
<g id="e1" class="edge">
<title>n3:e&#45;&gt;n4:w</title>
<path fill="none" stroke="black" d="M71,-111.5C90.65,-111.5 133.72,-136.36 156.85,-140.04"/>
<polygon fill="black" stroke="black" points="156.87,-141.8 162,-140.5 157.17,-138.32 156.87,-141.8"/>
<text text-anchor="middle" x="116.5" y="-139.3" font-family="Serif" font-size="14.00">Condition</text>
</g>
<!-- n5 -->
<!-- experiment -->
<g id="n5" class="node">
<title>n5</title>
<polygon fill="none" stroke="black" points="162,-85.5 162,-110.5 234,-110.5 234,-85.5 162,-85.5"/>
<text text-anchor="start" x="167" y="-94.3" font-family="Serif" font-size="14.00">experiment</text>
</g>
<!-- n3&#45;&gt;n5 -->
<!-- Condition -->
<g id="e2" class="edge">
<title>n3:e&#45;&gt;n5:w</title>
<path fill="none" stroke="black" d="M71,-87.5C109.94,-87.5 120.43,-96.66 156.92,-97.45"/>
<polygon fill="black" stroke="black" points="156.98,-99.2 162,-97.5 157.02,-95.7 156.98,-99.2"/>
<text text-anchor="middle" x="116.5" y="-100.3" font-family="Serif" font-size="14.00">Condition</text>
</g>
<!-- n6 -->
<!-- experiment -->
<g id="n6" class="node">
<title>n6</title>
<polygon fill="none" stroke="black" points="162,-42.5 162,-67.5 234,-67.5 234,-42.5 162,-42.5"/>
<text text-anchor="start" x="167" y="-51.3" font-family="Serif" font-size="14.00">experiment</text>
</g>
<!-- n3&#45;&gt;n6 -->
<!-- Condition -->
<g id="e3" class="edge">
<title>n3:e&#45;&gt;n6:w</title>
<path fill="none" stroke="black" d="M71,-63.5C79.3,-63.5 80.81,-59.85 89,-58.5 119.31,-53.52 128.51,-54.38 156.88,-54.49"/>
<polygon fill="black" stroke="black" points="157,-56.24 162,-54.5 157,-52.74 157,-56.24"/>
<text text-anchor="middle" x="116.5" y="-62.3" font-family="Serif" font-size="14.00">Condition</text>
</g>
<!-- n7 -->
<!-- experiment -->
<g id="n7" class="node">
<title>n7</title>
<polygon fill="none" stroke="black" points="162,0.5 162,-24.5 234,-24.5 234,0.5 162,0.5"/>
<text text-anchor="start" x="167" y="-8.3" font-family="Serif" font-size="14.00">experiment</text>
</g>
<!-- n3&#45;&gt;n7 -->
<!-- Condition -->
<g id="e4" class="edge">
<title>n3:e&#45;&gt;n7:w</title>
<path fill="none" stroke="black" d="M71,-39.5C75.63,-39.5 137.78,-18.06 156.79,-12.7"/>
<polygon fill="black" stroke="black" points="157.52,-14.33 162,-11.5 156.73,-10.92 157.52,-14.33"/>
<text text-anchor="middle" x="116.5" y="-38.3" font-family="Serif" font-size="14.00">Condition</text>
</g>
<!-- n8 -->
<!-- comparison -->
<g id="n8" class="node">
<title>n8</title>
<polygon fill="none" stroke="black" points="316,-27.5 316,-123.5 390,-123.5 390,-27.5 316,-27.5"/>
<text text-anchor="start" x="321" y="-71.8" font-family="Serif" font-size="14.00">comparison</text>
</g>
<!-- n4&#45;&gt;n8 -->
<!-- Number -->
<g id="e5" class="edge">
<title>n4:e&#45;&gt;n8:w</title>
<path fill="none" stroke="black" d="M234,-140.5C251.74,-140.5 289.72,-116.06 310.79,-112.05"/>
<polygon fill="black" stroke="black" points="311.21,-113.77 316,-111.5 310.84,-110.29 311.21,-113.77"/>
<text text-anchor="middle" x="275" y="-139.3" font-family="Serif" font-size="14.00">Number</text>
</g>
<!-- n5&#45;&gt;n8 -->
<!-- Number -->
<g id="e6" class="edge">
<title>n5:e&#45;&gt;n8:w</title>
<path fill="none" stroke="black" d="M234,-97.5C268.85,-97.5 278.34,-88.49 310.62,-87.57"/>
<polygon fill="black" stroke="black" points="311.02,-89.32 316,-87.5 310.98,-85.82 311.02,-89.32"/>
<text text-anchor="middle" x="275" y="-99.3" font-family="Serif" font-size="14.00">Number</text>
</g>
<!-- n6&#45;&gt;n8 -->
<!-- Number -->
<g id="e7" class="edge">
<title>n6:e&#45;&gt;n8:w</title>
<path fill="none" stroke="black" d="M234,-54.5C262.5,-54.5 269.9,-53.77 298,-58.5 304.14,-59.53 306.53,-61.83 310.84,-62.91"/>
<polygon fill="black" stroke="black" points="310.83,-64.67 316,-63.5 311.23,-61.2 310.83,-64.67"/>
<text text-anchor="middle" x="275" y="-62.3" font-family="Serif" font-size="14.00">Number</text>
</g>
<!-- n7&#45;&gt;n8 -->
<!-- Number -->
<g id="e8" class="edge">
<title>n7:e&#45;&gt;n8:w</title>
<path fill="none" stroke="black" d="M234,-11.5C242.57,-11.5 293.28,-33.71 311.07,-38.57"/>
<polygon fill="black" stroke="black" points="310.76,-40.29 316,-39.5 311.41,-36.85 310.76,-40.29"/>
<text text-anchor="middle" x="275" y="-38.3" font-family="Serif" font-size="14.00">Number</text>
</g>
<!-- n8&#45;&gt;n2p1 -->
<!-- Bool -->
<g id="e9" class="edge">
<title>n8:e&#45;&gt;n2p1:w</title>
<path fill="none" stroke="black" d="M390,-75.5C416.25,-75.5 424.04,-75.5 447.99,-75.5"/>
<polygon fill="black" stroke="black" points="448,-77.25 453,-75.5 448,-73.75 448,-77.25"/>
<text text-anchor="middle" x="421.5" y="-79.3" font-family="Serif" font-size="14.00">Bool</text>
</g>
</g>
</svg>
