<?xml version="1.0" encoding="UTF-8" standalone="no"?>
<!DOCTYPE svg PUBLIC "-//W3C//DTD SVG 1.1//EN"
 "http://www.w3.org/Graphics/SVG/1.1/DTD/svg11.dtd">
<!-- Generated by graphviz version 2.44.1 (20200629.0846)
 -->
<!-- Title: G Pages: 1 -->
<svg width="381pt" height="334pt"
 viewBox="0.00 0.00 381.00 334.00" xmlns="http://www.w3.org/2000/svg" xmlns:xlink="http://www.w3.org/1999/xlink">
<g id="graph0" class="graph" transform="scale(1 1) rotate(0) translate(4 330)">
<title>G</title>
<!-- n2p1 -->
<!-- n2p2 -->
<!-- n2p1&#45;&gt;n2p2 -->
<!-- n2p3 -->
<!-- n2p2&#45;&gt;n2p3 -->
<!-- n2p4 -->
<!-- n2p3&#45;&gt;n2p4 -->
<!-- n3 -->
<!-- t1 -->
<g id="n3" class="node">
<title>n3</title>
<polygon fill="none" stroke="black" points="141.5,-300.5 141.5,-325.5 162.5,-325.5 162.5,-300.5 141.5,-300.5"/>
<text text-anchor="start" x="146.5" y="-309.3" font-family="Serif" font-size="14.00">t1</text>
</g>
<!-- n5 -->
<!-- cond -->
<g id="n5" class="node">
<title>n5</title>
<polygon fill="none" stroke="black" points="244.5,-257.5 244.5,-305.5 281.5,-305.5 281.5,-257.5 244.5,-257.5"/>
<text text-anchor="start" x="249.5" y="-277.8" font-family="Serif" font-size="14.00">cond</text>
</g>
<!-- n3&#45;&gt;n5 -->
<!-- Task -->
<g id="e1" class="edge">
<title>n3:e&#45;&gt;n5:w</title>
<path fill="none" stroke="black" d="M163.5,-312.5C198.39,-312.5 206.45,-295.38 238.62,-293.64"/>
<polygon fill="black" stroke="black" points="239.05,-295.38 244,-293.5 238.96,-291.88 239.05,-295.38"/>
<text text-anchor="middle" x="212.5" y="-308.3" font-family="Serif" font-size="14.00">Task</text>
</g>
<!-- n4 -->
<!-- observed -->
<g id="n4" class="node">
<title>n4</title>
<polygon fill="none" stroke="black" points="122.5,-257.5 122.5,-282.5 181.5,-282.5 181.5,-257.5 122.5,-257.5"/>
<text text-anchor="start" x="127.5" y="-266.3" font-family="Serif" font-size="14.00">observed</text>
</g>
<!-- n4&#45;&gt;n5 -->
<!-- Bool -->
<g id="e2" class="edge">
<title>n4:e&#45;&gt;n5:w</title>
<path fill="none" stroke="black" d="M181,-269.5C207.25,-269.5 215.04,-269.5 238.99,-269.5"/>
<polygon fill="black" stroke="black" points="239,-271.25 244,-269.5 239,-267.75 239,-271.25"/>
<text text-anchor="middle" x="212.5" y="-273.3" font-family="Serif" font-size="14.00">Bool</text>
</g>
<!-- n5&#45;&gt;n2p1 -->
<!-- Condition -->
<g id="e3" class="edge">
<title>n5:e&#45;&gt;n2p1:w</title>
<path fill="none" stroke="black" d="M281,-281.5C319.86,-281.5 330.5,-274.17 366.93,-273.54"/>
<polygon fill="black" stroke="black" points="367.02,-275.29 372,-273.5 366.99,-271.79 367.02,-275.29"/>
<text text-anchor="middle" x="326.5" y="-284.3" font-family="Serif" font-size="14.00">Condition</text>
</g>
<!-- n6 -->
<!-- t2 -->
<g id="n6" class="node">
<title>n6</title>
<polygon fill="none" stroke="black" points="141.5,-128.5 141.5,-153.5 162.5,-153.5 162.5,-128.5 141.5,-128.5"/>
<text text-anchor="start" x="146.5" y="-137.3" font-family="Serif" font-size="14.00">t2</text>
</g>
<!-- n8 -->
<!-- cond -->
<g id="n8" class="node">
<title>n8</title>
<polygon fill="none" stroke="black" points="244.5,-95.5 244.5,-143.5 281.5,-143.5 281.5,-95.5 244.5,-95.5"/>
<text text-anchor="start" x="249.5" y="-115.8" font-family="Serif" font-size="14.00">cond</text>
</g>
<!-- n6&#45;&gt;n8 -->
<!-- Task -->
<g id="e4" class="edge">
<title>n6:e&#45;&gt;n8:w</title>
<path fill="none" stroke="black" d="M163.5,-140.5C197.67,-140.5 207.07,-132.39 238.72,-131.57"/>
<polygon fill="black" stroke="black" points="239.02,-133.31 244,-131.5 238.98,-129.81 239.02,-133.31"/>
<text text-anchor="middle" x="212.5" y="-140.3" font-family="Serif" font-size="14.00">Task</text>
</g>
<!-- n7 -->
<!-- observed -->
<g id="n7" class="node">
<title>n7</title>
<polygon fill="none" stroke="black" points="122.5,-85.5 122.5,-110.5 181.5,-110.5 181.5,-85.5 122.5,-85.5"/>
<text text-anchor="start" x="127.5" y="-94.3" font-family="Serif" font-size="14.00">observed</text>
</g>
<!-- n7&#45;&gt;n8 -->
<!-- Bool -->
<g id="e5" class="edge">
<title>n7:e&#45;&gt;n8:w</title>
<path fill="none" stroke="black" d="M181,-97.5C201.18,-97.5 206.13,-99.97 226,-103.5 232.05,-104.57 234.54,-106.29 238.86,-107.08"/>
<polygon fill="black" stroke="black" points="238.87,-108.83 244,-107.5 239.16,-105.34 238.87,-108.83"/>
<text text-anchor="middle" x="212.5" y="-107.3" font-family="Serif" font-size="14.00">Bool</text>
</g>
<!-- n8&#45;&gt;n2p3 -->
<!-- Condition -->
<g id="e6" class="edge">
<title>n8:e&#45;&gt;n2p3:w</title>
<path fill="none" stroke="black" d="M281,-119.5C319.71,-119.5 330.63,-119.5 366.95,-119.5"/>
<polygon fill="black" stroke="black" points="367,-121.25 372,-119.5 367,-117.75 367,-121.25"/>
<text text-anchor="middle" x="326.5" y="-123.3" font-family="Serif" font-size="14.00">Condition</text>
</g>
<!-- n9 -->
<!-- t1 -->
<g id="n9" class="node">
<title>n9</title>
<polygon fill="none" stroke="black" points="141.5,-214.5 141.5,-239.5 162.5,-239.5 162.5,-214.5 141.5,-214.5"/>
<text text-anchor="start" x="146.5" y="-223.3" font-family="Serif" font-size="14.00">t1</text>
</g>
<!-- n12 -->
<!-- cond -->
<g id="n12" class="node">
<title>n12</title>
<polygon fill="none" stroke="black" points="244.5,-176.5 244.5,-224.5 281.5,-224.5 281.5,-176.5 244.5,-176.5"/>
<text text-anchor="start" x="249.5" y="-196.8" font-family="Serif" font-size="14.00">cond</text>
</g>
<!-- n9&#45;&gt;n12 -->
<!-- Task -->
<g id="e7" class="edge">
<title>n9:e&#45;&gt;n12:w</title>
<path fill="none" stroke="black" d="M163.5,-226.5C197.97,-226.5 206.81,-213.89 238.68,-212.6"/>
<polygon fill="black" stroke="black" points="239.04,-214.35 244,-212.5 238.97,-210.85 239.04,-214.35"/>
<text text-anchor="middle" x="212.5" y="-224.3" font-family="Serif" font-size="14.00">Task</text>
</g>
<!-- n10 -->
<!-- observed -->
<g id="n10" class="node">
<title>n10</title>
<polygon fill="none" stroke="black" points="0.5,-171.5 0.5,-196.5 59.5,-196.5 59.5,-171.5 0.5,-171.5"/>
<text text-anchor="start" x="5.5" y="-180.3" font-family="Serif" font-size="14.00">observed</text>
</g>
<!-- n11 -->
<!-- neg -->
<g id="n11" class="node">
<title>n11</title>
<polygon fill="none" stroke="black" points="136.5,-171.5 136.5,-196.5 166.5,-196.5 166.5,-171.5 136.5,-171.5"/>
<text text-anchor="start" x="141.5" y="-180.3" font-family="Serif" font-size="14.00">neg</text>
</g>
<!-- n10&#45;&gt;n11 -->
<!-- Bool -->
<g id="e8" class="edge">
<title>n10:e&#45;&gt;n11:w</title>
<path fill="none" stroke="black" d="M59,-183.5C91.14,-183.5 100.49,-183.5 130.14,-183.5"/>
<polygon fill="black" stroke="black" points="130.5,-185.25 135.5,-183.5 130.5,-181.75 130.5,-185.25"/>
<text text-anchor="middle" x="90.5" y="-187.3" font-family="Serif" font-size="14.00">Bool</text>
</g>
<!-- n11&#45;&gt;n12 -->
<!-- Bool -->
<g id="e9" class="edge">
<title>n11:e&#45;&gt;n12:w</title>
<path fill="none" stroke="black" d="M167.5,-183.5C199.71,-183.5 208.94,-187.97 238.63,-188.46"/>
<polygon fill="black" stroke="black" points="238.99,-190.21 244,-188.5 239.01,-186.71 238.99,-190.21"/>
<text text-anchor="middle" x="212.5" y="-191.3" font-family="Serif" font-size="14.00">Bool</text>
</g>
<!-- n12&#45;&gt;n2p2 -->
<!-- Condition -->
<g id="e10" class="edge">
<title>n12:e&#45;&gt;n2p2:w</title>
<path fill="none" stroke="black" d="M281,-200.5C319.71,-200.5 330.63,-200.5 366.95,-200.5"/>
<polygon fill="black" stroke="black" points="367,-202.25 372,-200.5 367,-198.75 367,-202.25"/>
<text text-anchor="middle" x="326.5" y="-204.3" font-family="Serif" font-size="14.00">Condition</text>
</g>
<!-- n13 -->
<!-- t2 -->
<g id="n13" class="node">
<title>n13</title>
<polygon fill="none" stroke="black" points="141.5,-42.5 141.5,-67.5 162.5,-67.5 162.5,-42.5 141.5,-42.5"/>
<text text-anchor="start" x="146.5" y="-51.3" font-family="Serif" font-size="14.00">t2</text>
</g>
<!-- n16 -->
<!-- cond -->
<g id="n16" class="node">
<title>n16</title>
<polygon fill="none" stroke="black" points="244.5,-18.5 244.5,-66.5 281.5,-66.5 281.5,-18.5 244.5,-18.5"/>
<text text-anchor="start" x="249.5" y="-38.8" font-family="Serif" font-size="14.00">cond</text>
</g>
<!-- n13&#45;&gt;n16 -->
<!-- Task -->
<g id="e11" class="edge">
<title>n13:e&#45;&gt;n16:w</title>
<path fill="none" stroke="black" d="M163.5,-54.5C197.46,-54.5 207.24,-54.5 238.75,-54.5"/>
<polygon fill="black" stroke="black" points="239,-56.25 244,-54.5 239,-52.75 239,-56.25"/>
<text text-anchor="middle" x="212.5" y="-58.3" font-family="Serif" font-size="14.00">Task</text>
</g>
<!-- n14 -->
<!-- observed -->
<g id="n14" class="node">
<title>n14</title>
<polygon fill="none" stroke="black" points="0.5,0.5 0.5,-24.5 59.5,-24.5 59.5,0.5 0.5,0.5"/>
<text text-anchor="start" x="5.5" y="-8.3" font-family="Serif" font-size="14.00">observed</text>
</g>
<!-- n15 -->
<!-- neg -->
<g id="n15" class="node">
<title>n15</title>
<polygon fill="none" stroke="black" points="136.5,0.5 136.5,-24.5 166.5,-24.5 166.5,0.5 136.5,0.5"/>
<text text-anchor="start" x="141.5" y="-8.3" font-family="Serif" font-size="14.00">neg</text>
</g>
<!-- n14&#45;&gt;n15 -->
<!-- Bool -->
<g id="e12" class="edge">
<title>n14:e&#45;&gt;n15:w</title>
<path fill="none" stroke="black" d="M59,-11.5C91.14,-11.5 100.49,-11.5 130.14,-11.5"/>
<polygon fill="black" stroke="black" points="130.5,-13.25 135.5,-11.5 130.5,-9.75 130.5,-13.25"/>
<text text-anchor="middle" x="90.5" y="-15.3" font-family="Serif" font-size="14.00">Bool</text>
</g>
<!-- n15&#45;&gt;n16 -->
<!-- Bool -->
<g id="e13" class="edge">
<title>n15:e&#45;&gt;n16:w</title>
<path fill="none" stroke="black" d="M167.5,-11.5C200.75,-11.5 208.24,-28.62 238.88,-30.36"/>
<polygon fill="black" stroke="black" points="238.95,-32.11 244,-30.5 239.05,-28.61 238.95,-32.11"/>
<text text-anchor="middle" x="212.5" y="-33.3" font-family="Serif" font-size="14.00">Bool</text>
</g>
<!-- n16&#45;&gt;n2p4 -->
<!-- Condition -->
<g id="e14" class="edge">
<title>n16:e&#45;&gt;n2p4:w</title>
<path fill="none" stroke="black" d="M281,-42.5C320.1,-42.5 330.29,-54.41 366.9,-55.43"/>
<polygon fill="black" stroke="black" points="366.98,-57.18 372,-55.5 367.02,-53.68 366.98,-57.18"/>
<text text-anchor="middle" x="326.5" y="-57.3" font-family="Serif" font-size="14.00">Condition</text>
</g>
</g>
</svg>
