<?xml version="1.0" encoding="UTF-8" standalone="no"?>
<!DOCTYPE svg PUBLIC "-//W3C//DTD SVG 1.1//EN"
 "http://www.w3.org/Graphics/SVG/1.1/DTD/svg11.dtd">
<!-- Generated by graphviz version 2.44.1 (20200629.0846)
 -->
<!-- Title: G Pages: 1 -->
<svg width="253pt" height="455pt"
 viewBox="0.00 0.00 253.00 455.00" xmlns="http://www.w3.org/2000/svg" xmlns:xlink="http://www.w3.org/1999/xlink">
<g id="graph0" class="graph" transform="scale(1 1) rotate(0) translate(4 451)">
<title>G</title>
<!-- n2p1 -->
<!-- n2p2 -->
<!-- n2p1&#45;&gt;n2p2 -->
<!-- n2p3 -->
<!-- n2p2&#45;&gt;n2p3 -->
<!-- n2p4 -->
<!-- n2p3&#45;&gt;n2p4 -->
<!-- n2p5 -->
<!-- n2p4&#45;&gt;n2p5 -->
<!-- n2p6 -->
<!-- n2p5&#45;&gt;n2p6 -->
<!-- n2p7 -->
<!-- n2p6&#45;&gt;n2p7 -->
<!-- n2p8 -->
<!-- n2p7&#45;&gt;n2p8 -->
<!-- n3 -->
<!-- t1 -->
<g id="n3" class="node">
<title>n3</title>
<polygon fill="none" stroke="black" points="141.5,-420 141.5,-445 162.5,-445 162.5,-420 141.5,-420"/>
<text text-anchor="start" x="146.5" y="-428.8" font-family="Serif" font-size="14.00">t1</text>
</g>
<!-- n3&#45;&gt;n2p1 -->
<!-- Task -->
<g id="e1" class="edge">
<title>n3:e&#45;&gt;n2p1:w</title>
<path fill="none" stroke="black" d="M163.5,-432C197.46,-432 207.24,-432 238.75,-432"/>
<polygon fill="black" stroke="black" points="239,-433.75 244,-432 239,-430.25 239,-433.75"/>
<text text-anchor="middle" x="212.5" y="-435.8" font-family="Serif" font-size="14.00">Task</text>
</g>
<!-- n4 -->
<!-- observed -->
<g id="n4" class="node">
<title>n4</title>
<polygon fill="none" stroke="black" points="122.5,-360 122.5,-385 181.5,-385 181.5,-360 122.5,-360"/>
<text text-anchor="start" x="127.5" y="-368.8" font-family="Serif" font-size="14.00">observed</text>
</g>
<!-- n4&#45;&gt;n2p2 -->
<!-- Bool -->
<g id="e2" class="edge">
<title>n4:e&#45;&gt;n2p2:w</title>
<path fill="none" stroke="black" d="M181,-372C207.25,-372 215.04,-372 238.99,-372"/>
<polygon fill="black" stroke="black" points="239,-373.75 244,-372 239,-370.25 239,-373.75"/>
<text text-anchor="middle" x="212.5" y="-375.8" font-family="Serif" font-size="14.00">Bool</text>
</g>
<!-- n5 -->
<!-- t2 -->
<g id="n5" class="node">
<title>n5</title>
<polygon fill="none" stroke="black" points="141.5,-180 141.5,-205 162.5,-205 162.5,-180 141.5,-180"/>
<text text-anchor="start" x="146.5" y="-188.8" font-family="Serif" font-size="14.00">t2</text>
</g>
<!-- n5&#45;&gt;n2p5 -->
<!-- Task -->
<g id="e3" class="edge">
<title>n5:e&#45;&gt;n2p5:w</title>
<path fill="none" stroke="black" d="M163.5,-192C197.46,-192 207.24,-192 238.75,-192"/>
<polygon fill="black" stroke="black" points="239,-193.75 244,-192 239,-190.25 239,-193.75"/>
<text text-anchor="middle" x="212.5" y="-195.8" font-family="Serif" font-size="14.00">Task</text>
</g>
<!-- n6 -->
<!-- observed -->
<g id="n6" class="node">
<title>n6</title>
<polygon fill="none" stroke="black" points="122.5,-120 122.5,-145 181.5,-145 181.5,-120 122.5,-120"/>
<text text-anchor="start" x="127.5" y="-128.8" font-family="Serif" font-size="14.00">observed</text>
</g>
<!-- n6&#45;&gt;n2p6 -->
<!-- Bool -->
<g id="e4" class="edge">
<title>n6:e&#45;&gt;n2p6:w</title>
<path fill="none" stroke="black" d="M181,-132C207.25,-132 215.04,-132 238.99,-132"/>
<polygon fill="black" stroke="black" points="239,-133.75 244,-132 239,-130.25 239,-133.75"/>
<text text-anchor="middle" x="212.5" y="-135.8" font-family="Serif" font-size="14.00">Bool</text>
</g>
<!-- n7 -->
<!-- t1 -->
<g id="n7" class="node">
<title>n7</title>
<polygon fill="none" stroke="black" points="141.5,-300 141.5,-325 162.5,-325 162.5,-300 141.5,-300"/>
<text text-anchor="start" x="146.5" y="-308.8" font-family="Serif" font-size="14.00">t1</text>
</g>
<!-- n7&#45;&gt;n2p3 -->
<!-- Task -->
<g id="e5" class="edge">
<title>n7:e&#45;&gt;n2p3:w</title>
<path fill="none" stroke="black" d="M163.5,-312C197.46,-312 207.24,-312 238.75,-312"/>
<polygon fill="black" stroke="black" points="239,-313.75 244,-312 239,-310.25 239,-313.75"/>
<text text-anchor="middle" x="212.5" y="-315.8" font-family="Serif" font-size="14.00">Task</text>
</g>
<!-- n8 -->
<!-- observed -->
<g id="n8" class="node">
<title>n8</title>
<polygon fill="none" stroke="black" points="0.5,-240 0.5,-265 59.5,-265 59.5,-240 0.5,-240"/>
<text text-anchor="start" x="5.5" y="-248.8" font-family="Serif" font-size="14.00">observed</text>
</g>
<!-- n9 -->
<!-- neg -->
<g id="n9" class="node">
<title>n9</title>
<polygon fill="none" stroke="black" points="136.5,-240 136.5,-265 166.5,-265 166.5,-240 136.5,-240"/>
<text text-anchor="start" x="141.5" y="-248.8" font-family="Serif" font-size="14.00">neg</text>
</g>
<!-- n8&#45;&gt;n9 -->
<!-- Bool -->
<g id="e6" class="edge">
<title>n8:e&#45;&gt;n9:w</title>
<path fill="none" stroke="black" d="M59,-252C91.14,-252 100.49,-252 130.14,-252"/>
<polygon fill="black" stroke="black" points="130.5,-253.75 135.5,-252 130.5,-250.25 130.5,-253.75"/>
<text text-anchor="middle" x="90.5" y="-255.8" font-family="Serif" font-size="14.00">Bool</text>
</g>
<!-- n9&#45;&gt;n2p4 -->
<!-- Bool -->
<g id="e7" class="edge">
<title>n9:e&#45;&gt;n2p4:w</title>
<path fill="none" stroke="black" d="M167.5,-252C199.64,-252 208.99,-252 238.64,-252"/>
<polygon fill="black" stroke="black" points="239,-253.75 244,-252 239,-250.25 239,-253.75"/>
<text text-anchor="middle" x="212.5" y="-255.8" font-family="Serif" font-size="14.00">Bool</text>
</g>
<!-- n10 -->
<!-- t2 -->
<g id="n10" class="node">
<title>n10</title>
<polygon fill="none" stroke="black" points="141.5,-60 141.5,-85 162.5,-85 162.5,-60 141.5,-60"/>
<text text-anchor="start" x="146.5" y="-68.8" font-family="Serif" font-size="14.00">t2</text>
</g>
<!-- n10&#45;&gt;n2p7 -->
<!-- Task -->
<g id="e8" class="edge">
<title>n10:e&#45;&gt;n2p7:w</title>
<path fill="none" stroke="black" d="M163.5,-72C197.46,-72 207.24,-72 238.75,-72"/>
<polygon fill="black" stroke="black" points="239,-73.75 244,-72 239,-70.25 239,-73.75"/>
<text text-anchor="middle" x="212.5" y="-75.8" font-family="Serif" font-size="14.00">Task</text>
</g>
<!-- n11 -->
<!-- observed -->
<g id="n11" class="node">
<title>n11</title>
<polygon fill="none" stroke="black" points="0.5,0 0.5,-25 59.5,-25 59.5,0 0.5,0"/>
<text text-anchor="start" x="5.5" y="-8.8" font-family="Serif" font-size="14.00">observed</text>
</g>
<!-- n12 -->
<!-- neg -->
<g id="n12" class="node">
<title>n12</title>
<polygon fill="none" stroke="black" points="136.5,0 136.5,-25 166.5,-25 166.5,0 136.5,0"/>
<text text-anchor="start" x="141.5" y="-8.8" font-family="Serif" font-size="14.00">neg</text>
</g>
<!-- n11&#45;&gt;n12 -->
<!-- Bool -->
<g id="e9" class="edge">
<title>n11:e&#45;&gt;n12:w</title>
<path fill="none" stroke="black" d="M59,-12C91.14,-12 100.49,-12 130.14,-12"/>
<polygon fill="black" stroke="black" points="130.5,-13.75 135.5,-12 130.5,-10.25 130.5,-13.75"/>
<text text-anchor="middle" x="90.5" y="-15.8" font-family="Serif" font-size="14.00">Bool</text>
</g>
<!-- n12&#45;&gt;n2p8 -->
<!-- Bool -->
<g id="e10" class="edge">
<title>n12:e&#45;&gt;n2p8:w</title>
<path fill="none" stroke="black" d="M167.5,-12C199.64,-12 208.99,-12 238.64,-12"/>
<polygon fill="black" stroke="black" points="239,-13.75 244,-12 239,-10.25 239,-13.75"/>
<text text-anchor="middle" x="212.5" y="-15.8" font-family="Serif" font-size="14.00">Bool</text>
</g>
</g>
</svg>
