<?xml version="1.0" encoding="UTF-8" standalone="no"?>
<!DOCTYPE svg PUBLIC "-//W3C//DTD SVG 1.1//EN"
 "http://www.w3.org/Graphics/SVG/1.1/DTD/svg11.dtd">
<!-- Generated by graphviz version 2.44.1 (20200629.0846)
 -->
<!-- Title: G Pages: 1 -->
<svg width="875pt" height="326pt"
 viewBox="0.00 0.00 875.00 326.00" xmlns="http://www.w3.org/2000/svg" xmlns:xlink="http://www.w3.org/1999/xlink">
<g id="graph0" class="graph" transform="scale(1 1) rotate(0) translate(4 322)">
<title>G</title>
<polygon fill="white" stroke="transparent" points="-4,4 -4,-322 871,-322 871,4 -4,4"/>
<!-- n2p1 -->
<!-- n3 -->
<!-- observed -->
<g id="n3" class="node">
<title>n3</title>
<polygon fill="none" stroke="black" points="0.5,-129.5 0.5,-154.5 59.5,-154.5 59.5,-129.5 0.5,-129.5"/>
<text text-anchor="start" x="5.5" y="-138.3" font-family="Serif" font-size="14.00">observed</text>
</g>
<!-- n22 -->
<!-- junction -->
<g id="n22" class="node">
<title>n22</title>
<ellipse fill="black" stroke="black" cx="124" cy="-141.5" rx="2" ry="2"/>
</g>
<!-- n3&#45;&gt;n22 -->
<!-- Bool -->
<g id="e1" class="edge">
<title>n3:e&#45;&gt;n22</title>
<path fill="none" stroke="black" d="M59,-141.5C79.81,-141.5 104.42,-141.5 116.13,-141.5"/>
<polygon fill="black" stroke="black" points="116.42,-143.25 121.42,-141.5 116.42,-139.75 116.42,-143.25"/>
<text text-anchor="middle" x="90.5" y="-145.3" font-family="Serif" font-size="14.00">Bool</text>
</g>
<!-- n4 -->
<!-- neg -->
<g id="n4" class="node">
<title>n4</title>
<polygon fill="none" stroke="black" points="189,-129.5 189,-154.5 219,-154.5 219,-129.5 189,-129.5"/>
<text text-anchor="start" x="194" y="-138.3" font-family="Serif" font-size="14.00">neg</text>
</g>
<!-- n23 -->
<!-- junction -->
<g id="n23" class="node">
<title>n23</title>
<ellipse fill="black" stroke="black" cx="307" cy="-141.5" rx="2" ry="2"/>
</g>
<!-- n4&#45;&gt;n23 -->
<!-- Bool -->
<g id="e2" class="edge">
<title>n4:e&#45;&gt;n23</title>
<path fill="none" stroke="black" d="M219,-141.5C249.11,-141.5 285.09,-141.5 299.53,-141.5"/>
<polygon fill="black" stroke="black" points="299.77,-143.25 304.77,-141.5 299.77,-139.75 299.77,-143.25"/>
<text text-anchor="middle" x="262" y="-145.3" font-family="Serif" font-size="14.00">Bool</text>
</g>
<!-- n5 -->
<!-- t1 -->
<g id="n5" class="node">
<title>n5</title>
<polygon fill="none" stroke="black" points="194,-270.5 194,-295.5 215,-295.5 215,-270.5 194,-270.5"/>
<text text-anchor="start" x="199" y="-279.3" font-family="Serif" font-size="14.00">t1</text>
</g>
<!-- n24 -->
<!-- junction -->
<g id="n24" class="node">
<title>n24</title>
<ellipse fill="black" stroke="black" cx="307" cy="-282.5" rx="2" ry="2"/>
</g>
<!-- n5&#45;&gt;n24 -->
<!-- Task -->
<g id="e3" class="edge">
<title>n5:e&#45;&gt;n24</title>
<path fill="none" stroke="black" d="M216,-282.5C247.44,-282.5 285.05,-282.5 299.71,-282.5"/>
<polygon fill="black" stroke="black" points="299.73,-284.25 304.73,-282.5 299.73,-280.75 299.73,-284.25"/>
<text text-anchor="middle" x="262" y="-286.3" font-family="Serif" font-size="14.00">Task</text>
</g>
<!-- n6 -->
<!-- anxiety -->
<g id="n6" class="node">
<title>n6</title>
<polygon fill="none" stroke="black" points="395,-292.5 395,-317.5 445,-317.5 445,-292.5 395,-292.5"/>
<text text-anchor="start" x="400" y="-301.3" font-family="Serif" font-size="14.00">anxiety</text>
</g>
<!-- n8 -->
<!-- performance -->
<g id="n8" class="node">
<title>n8</title>
<polygon fill="none" stroke="black" points="527,-233.5 527,-281.5 607,-281.5 607,-233.5 527,-233.5"/>
<text text-anchor="start" x="532" y="-253.8" font-family="Serif" font-size="14.00">performance</text>
</g>
<!-- n6&#45;&gt;n8 -->
<!-- Number -->
<g id="e4" class="edge">
<title>n6:e&#45;&gt;n8:w</title>
<path fill="none" stroke="black" d="M445,-304.5C449.3,-304.5 504.08,-278.18 521.79,-271.19"/>
<polygon fill="black" stroke="black" points="522.78,-272.71 527,-269.5 521.7,-269.38 522.78,-272.71"/>
<text text-anchor="middle" x="486" y="-300.3" font-family="Serif" font-size="14.00">Number</text>
</g>
<!-- n7 -->
<!-- arousal -->
<g id="n7" class="node">
<title>n7</title>
<polygon fill="none" stroke="black" points="237,-188.5 237,-213.5 287,-213.5 287,-188.5 237,-188.5"/>
<text text-anchor="start" x="242" y="-197.3" font-family="Serif" font-size="14.00">arousal</text>
</g>
<!-- n7&#45;&gt;n8 -->
<!-- Number -->
<g id="e5" class="edge">
<title>n7:e&#45;&gt;n8:w</title>
<path fill="none" stroke="black" d="M287,-200.5C386.89,-200.5 414.56,-202.97 509,-235.5 515.62,-237.78 517.29,-242.43 521.82,-244.49"/>
<polygon fill="black" stroke="black" points="521.76,-246.26 527,-245.5 522.43,-242.82 521.76,-246.26"/>
<text text-anchor="middle" x="352" y="-207.3" font-family="Serif" font-size="14.00">Number</text>
</g>
<!-- n12 -->
<!-- gt -->
<g id="n12" class="node">
<title>n12</title>
<polygon fill="none" stroke="black" points="689.5,-179.5 689.5,-227.5 710.5,-227.5 710.5,-179.5 689.5,-179.5"/>
<text text-anchor="start" x="694.5" y="-199.8" font-family="Serif" font-size="14.00">gt</text>
</g>
<!-- n8&#45;&gt;n12 -->
<!-- Number -->
<g id="e6" class="edge">
<title>n8:e&#45;&gt;n12:w</title>
<path fill="none" stroke="black" d="M607,-257.5C646.19,-257.5 647.97,-219.03 683.94,-215.73"/>
<polygon fill="black" stroke="black" points="684.08,-217.47 689,-215.5 683.93,-213.97 684.08,-217.47"/>
<text text-anchor="middle" x="648" y="-257.3" font-family="Serif" font-size="14.00">Number</text>
</g>
<!-- n9 -->
<!-- anxiety -->
<g id="n9" class="node">
<title>n9</title>
<polygon fill="none" stroke="black" points="395,-249.5 395,-274.5 445,-274.5 445,-249.5 395,-249.5"/>
<text text-anchor="start" x="400" y="-258.3" font-family="Serif" font-size="14.00">anxiety</text>
</g>
<!-- n11 -->
<!-- performance -->
<g id="n11" class="node">
<title>n11</title>
<polygon fill="none" stroke="black" points="527,-167.5 527,-215.5 607,-215.5 607,-167.5 527,-167.5"/>
<text text-anchor="start" x="532" y="-187.8" font-family="Serif" font-size="14.00">performance</text>
</g>
<!-- n9&#45;&gt;n11 -->
<!-- Number -->
<g id="e7" class="edge">
<title>n9:e&#45;&gt;n11:w</title>
<path fill="none" stroke="black" d="M445,-261.5C487.9,-261.5 482.85,-207.94 522,-203.76"/>
<polygon fill="black" stroke="black" points="522.1,-205.51 527,-203.5 521.92,-202.01 522.1,-205.51"/>
<text text-anchor="middle" x="486" y="-260.3" font-family="Serif" font-size="14.00">Number</text>
</g>
<!-- n10 -->
<!-- arousal -->
<g id="n10" class="node">
<title>n10</title>
<polygon fill="none" stroke="black" points="395,-167.5 395,-192.5 445,-192.5 445,-167.5 395,-167.5"/>
<text text-anchor="start" x="400" y="-176.3" font-family="Serif" font-size="14.00">arousal</text>
</g>
<!-- n10&#45;&gt;n11 -->
<!-- Number -->
<g id="e8" class="edge">
<title>n10:e&#45;&gt;n11:w</title>
<path fill="none" stroke="black" d="M445,-179.5C479.59,-179.5 489.56,-179.5 521.65,-179.5"/>
<polygon fill="black" stroke="black" points="522,-181.25 527,-179.5 522,-177.75 522,-181.25"/>
<text text-anchor="middle" x="486" y="-183.3" font-family="Serif" font-size="14.00">Number</text>
</g>
<!-- n11&#45;&gt;n12 -->
<!-- Number -->
<g id="e9" class="edge">
<title>n11:e&#45;&gt;n12:w</title>
<path fill="none" stroke="black" d="M607,-191.5C641.59,-191.5 651.56,-191.5 683.65,-191.5"/>
<polygon fill="black" stroke="black" points="684,-193.25 689,-191.5 684,-189.75 684,-193.25"/>
<text text-anchor="middle" x="648" y="-195.3" font-family="Serif" font-size="14.00">Number</text>
</g>
<!-- n21 -->
<!-- and -->
<g id="n21" class="node">
<title>n21</title>
<polygon fill="none" stroke="black" points="773,-139.5 773,-187.5 803,-187.5 803,-139.5 773,-139.5"/>
<text text-anchor="start" x="778" y="-159.8" font-family="Serif" font-size="14.00">and</text>
</g>
<!-- n12&#45;&gt;n21 -->
<!-- Bool -->
<g id="e10" class="edge">
<title>n12:e&#45;&gt;n21:w</title>
<path fill="none" stroke="black" d="M710,-203.5C738.85,-203.5 742.06,-178.69 767.9,-175.78"/>
<polygon fill="black" stroke="black" points="768.1,-177.52 773,-175.5 767.91,-174.02 768.1,-177.52"/>
<text text-anchor="middle" x="741.5" y="-203.3" font-family="Serif" font-size="14.00">Bool</text>
</g>
<!-- n13 -->
<!-- t2 -->
<g id="n13" class="node">
<title>n13</title>
<polygon fill="none" stroke="black" points="194,-77.5 194,-102.5 215,-102.5 215,-77.5 194,-77.5"/>
<text text-anchor="start" x="199" y="-86.3" font-family="Serif" font-size="14.00">t2</text>
</g>
<!-- n25 -->
<!-- junction -->
<g id="n25" class="node">
<title>n25</title>
<ellipse fill="black" stroke="black" cx="307" cy="-89.5" rx="2" ry="2"/>
</g>
<!-- n13&#45;&gt;n25 -->
<!-- Task -->
<g id="e11" class="edge">
<title>n13:e&#45;&gt;n25</title>
<path fill="none" stroke="black" d="M216,-89.5C247.44,-89.5 285.05,-89.5 299.71,-89.5"/>
<polygon fill="black" stroke="black" points="299.73,-91.25 304.73,-89.5 299.73,-87.75 299.73,-91.25"/>
<text text-anchor="middle" x="262" y="-93.3" font-family="Serif" font-size="14.00">Task</text>
</g>
<!-- n14 -->
<!-- anxiety -->
<g id="n14" class="node">
<title>n14</title>
<polygon fill="none" stroke="black" points="395,-38.5 395,-63.5 445,-63.5 445,-38.5 395,-38.5"/>
<text text-anchor="start" x="400" y="-47.3" font-family="Serif" font-size="14.00">anxiety</text>
</g>
<!-- n16 -->
<!-- performance -->
<g id="n16" class="node">
<title>n16</title>
<polygon fill="none" stroke="black" points="527,-14.5 527,-62.5 607,-62.5 607,-14.5 527,-14.5"/>
<text text-anchor="start" x="532" y="-34.8" font-family="Serif" font-size="14.00">performance</text>
</g>
<!-- n14&#45;&gt;n16 -->
<!-- Number -->
<g id="e12" class="edge">
<title>n14:e&#45;&gt;n16:w</title>
<path fill="none" stroke="black" d="M445,-50.5C479.59,-50.5 489.56,-50.5 521.65,-50.5"/>
<polygon fill="black" stroke="black" points="522,-52.25 527,-50.5 522,-48.75 522,-52.25"/>
<text text-anchor="middle" x="486" y="-54.3" font-family="Serif" font-size="14.00">Number</text>
</g>
<!-- n15 -->
<!-- arousal -->
<g id="n15" class="node">
<title>n15</title>
<polygon fill="none" stroke="black" points="327,0.5 327,-24.5 377,-24.5 377,0.5 327,0.5"/>
<text text-anchor="start" x="332" y="-8.3" font-family="Serif" font-size="14.00">arousal</text>
</g>
<!-- n15&#45;&gt;n16 -->
<!-- Number -->
<g id="e13" class="edge">
<title>n15:e&#45;&gt;n16:w</title>
<path fill="none" stroke="black" d="M377,-11.5C407.25,-11.5 414.88,-11.64 445,-14.5 479.81,-17.81 489.23,-25.65 521.6,-26.44"/>
<polygon fill="black" stroke="black" points="521.98,-28.19 527,-26.5 522.02,-24.69 521.98,-28.19"/>
<text text-anchor="middle" x="420" y="-18.3" font-family="Serif" font-size="14.00">Number</text>
</g>
<!-- n20 -->
<!-- lt -->
<g id="n20" class="node">
<title>n20</title>
<polygon fill="none" stroke="black" points="690.5,-103.5 690.5,-151.5 708.5,-151.5 708.5,-103.5 690.5,-103.5"/>
<text text-anchor="start" x="695.5" y="-123.8" font-family="Serif" font-size="14.00">lt</text>
</g>
<!-- n16&#45;&gt;n20 -->
<!-- Number -->
<g id="e14" class="edge">
<title>n16:e&#45;&gt;n20:w</title>
<path fill="none" stroke="black" d="M607,-38.5C645.39,-38.5 648.68,-65.27 671,-96.5 681.96,-111.84 671.16,-134.69 684.53,-138.84"/>
<polygon fill="black" stroke="black" points="684.31,-140.58 689.5,-139.5 684.77,-137.11 684.31,-140.58"/>
<text text-anchor="middle" x="648" y="-100.3" font-family="Serif" font-size="14.00">Number</text>
</g>
<!-- n17 -->
<!-- anxiety -->
<g id="n17" class="node">
<title>n17</title>
<polygon fill="none" stroke="black" points="395,-81.5 395,-106.5 445,-106.5 445,-81.5 395,-81.5"/>
<text text-anchor="start" x="400" y="-90.3" font-family="Serif" font-size="14.00">anxiety</text>
</g>
<!-- n19 -->
<!-- performance -->
<g id="n19" class="node">
<title>n19</title>
<polygon fill="none" stroke="black" points="527,-91.5 527,-139.5 607,-139.5 607,-91.5 527,-91.5"/>
<text text-anchor="start" x="532" y="-111.8" font-family="Serif" font-size="14.00">performance</text>
</g>
<!-- n17&#45;&gt;n19 -->
<!-- Number -->
<g id="e15" class="edge">
<title>n17:e&#45;&gt;n19:w</title>
<path fill="none" stroke="black" d="M445,-93.5C473.5,-93.5 484.65,-82.69 509,-97.5 520.42,-104.44 514.02,-121.61 521.86,-126.3"/>
<polygon fill="black" stroke="black" points="521.73,-128.07 527,-127.5 522.53,-124.66 521.73,-128.07"/>
<text text-anchor="middle" x="486" y="-101.3" font-family="Serif" font-size="14.00">Number</text>
</g>
<!-- n18 -->
<!-- arousal -->
<g id="n18" class="node">
<title>n18</title>
<polygon fill="none" stroke="black" points="395,-124.5 395,-149.5 445,-149.5 445,-124.5 395,-124.5"/>
<text text-anchor="start" x="400" y="-133.3" font-family="Serif" font-size="14.00">arousal</text>
</g>
<!-- n18&#45;&gt;n19 -->
<!-- Number -->
<g id="e16" class="edge">
<title>n18:e&#45;&gt;n19:w</title>
<path fill="none" stroke="black" d="M445,-136.5C475.38,-136.5 481.15,-124.64 509,-112.5 515.28,-109.76 517.25,-105.94 521.85,-104.3"/>
<polygon fill="black" stroke="black" points="522.33,-106 527,-103.5 521.79,-102.54 522.33,-106"/>
<text text-anchor="middle" x="486" y="-139.3" font-family="Serif" font-size="14.00">Number</text>
</g>
<!-- n19&#45;&gt;n20 -->
<!-- Number -->
<g id="e17" class="edge">
<title>n19:e&#45;&gt;n20:w</title>
<path fill="none" stroke="black" d="M607,-115.5C641.8,-115.5 651.83,-115.5 684.12,-115.5"/>
<polygon fill="black" stroke="black" points="684.5,-117.25 689.5,-115.5 684.5,-113.75 684.5,-117.25"/>
<text text-anchor="middle" x="648" y="-119.3" font-family="Serif" font-size="14.00">Number</text>
</g>
<!-- n20&#45;&gt;n21 -->
<!-- Bool -->
<g id="e18" class="edge">
<title>n20:e&#45;&gt;n21:w</title>
<path fill="none" stroke="black" d="M709.5,-127.5C737.9,-127.5 742.37,-148.77 767.96,-151.26"/>
<polygon fill="black" stroke="black" points="767.92,-153.01 773,-151.5 768.09,-149.52 767.92,-153.01"/>
<text text-anchor="middle" x="741.5" y="-151.3" font-family="Serif" font-size="14.00">Bool</text>
</g>
<!-- n21&#45;&gt;n2p1 -->
<!-- Bool -->
<g id="e19" class="edge">
<title>n21:e&#45;&gt;n2p1:w</title>
<path fill="none" stroke="black" d="M803,-163.5C829.25,-163.5 837.04,-163.5 860.99,-163.5"/>
<polygon fill="black" stroke="black" points="861,-165.25 866,-163.5 861,-161.75 861,-165.25"/>
<text text-anchor="middle" x="834.5" y="-167.3" font-family="Serif" font-size="14.00">Bool</text>
</g>
<!-- n22&#45;&gt;n4 -->
<!-- Bool -->
<g id="e20" class="edge">
<title>n22&#45;&gt;n4:w</title>
<path fill="none" stroke="black" d="M126.58,-141.5C133.3,-141.5 160.18,-141.5 183.98,-141.5"/>
<polygon fill="black" stroke="black" points="184,-143.25 189,-141.5 184,-139.75 184,-143.25"/>
<text text-anchor="middle" x="157.5" y="-145.3" font-family="Serif" font-size="14.00">Bool</text>
</g>
<!-- n22&#45;&gt;n7 -->
<!-- Bool -->
<g id="e21" class="edge">
<title>n22&#45;&gt;n7:w</title>
<path fill="none" stroke="black" d="M125.91,-142.68C128.45,-145.92 135.97,-155.05 144,-160.5 179.79,-184.76 191.12,-199.33 231.88,-200.43"/>
<polygon fill="black" stroke="black" points="231.98,-202.18 237,-200.5 232.02,-198.68 231.98,-202.18"/>
<text text-anchor="middle" x="157.5" y="-183.3" font-family="Serif" font-size="14.00">Bool</text>
</g>
<!-- n22&#45;&gt;n15 -->
<!-- Bool -->
<g id="e22" class="edge">
<title>n22&#45;&gt;n15:w</title>
<path fill="none" stroke="black" d="M125.64,-139.99C129.74,-130.54 153.3,-78.92 189,-53.5 239.8,-17.33 261.68,-11.79 321.83,-11.51"/>
<polygon fill="black" stroke="black" points="322,-13.26 327,-11.5 322,-9.76 322,-13.26"/>
<text text-anchor="middle" x="204" y="-57.3" font-family="Serif" font-size="14.00">Bool</text>
</g>
<!-- n23&#45;&gt;n10 -->
<!-- Bool -->
<g id="e23" class="edge">
<title>n23&#45;&gt;n10:w</title>
<path fill="none" stroke="black" d="M308.96,-142.37C311.63,-144.76 319.47,-151.51 327,-155.5 353.77,-169.68 362.05,-178.5 389.95,-179.42"/>
<polygon fill="black" stroke="black" points="389.97,-181.17 395,-179.5 390.03,-177.67 389.97,-181.17"/>
<text text-anchor="middle" x="352" y="-182.3" font-family="Serif" font-size="14.00">Bool</text>
</g>
<!-- n23&#45;&gt;n18 -->
<!-- Bool -->
<g id="e24" class="edge">
<title>n23&#45;&gt;n18:w</title>
<path fill="none" stroke="black" d="M309.23,-141.38C316.57,-140.65 355.63,-136.91 389.6,-136.53"/>
<polygon fill="black" stroke="black" points="390.01,-138.28 395,-136.5 389.99,-134.78 390.01,-138.28"/>
<text text-anchor="middle" x="352" y="-144.3" font-family="Serif" font-size="14.00">Bool</text>
</g>
<!-- n24&#45;&gt;n6 -->
<!-- Task -->
<g id="e25" class="edge">
<title>n24&#45;&gt;n6:w</title>
<path fill="none" stroke="black" d="M309.2,-283.04C316.42,-286.27 354.99,-302.84 389.88,-304.38"/>
<polygon fill="black" stroke="black" points="389.96,-306.14 395,-304.5 390.04,-302.64 389.96,-306.14"/>
<text text-anchor="middle" x="352" y="-306.3" font-family="Serif" font-size="14.00">Task</text>
</g>
<!-- n24&#45;&gt;n9 -->
<!-- Task -->
<g id="e26" class="edge">
<title>n24&#45;&gt;n9:w</title>
<path fill="none" stroke="black" d="M308.86,-281.3C311.27,-278.05 318.5,-269.04 327,-265.5 353.31,-254.55 363.52,-260.67 389.88,-261.43"/>
<polygon fill="black" stroke="black" points="389.98,-263.18 395,-261.5 390.03,-259.68 389.98,-263.18"/>
<text text-anchor="middle" x="352" y="-269.3" font-family="Serif" font-size="14.00">Task</text>
</g>
<!-- n25&#45;&gt;n14 -->
<!-- Task -->
<g id="e27" class="edge">
<title>n25&#45;&gt;n14:w</title>
<path fill="none" stroke="black" d="M308.91,-88.41C311.46,-85.44 319.02,-77.09 327,-72.5 353.04,-57.54 362.23,-51.2 389.99,-50.56"/>
<polygon fill="black" stroke="black" points="390.02,-52.31 395,-50.5 389.98,-48.81 390.02,-52.31"/>
<text text-anchor="middle" x="352" y="-76.3" font-family="Serif" font-size="14.00">Task</text>
</g>
<!-- n25&#45;&gt;n17 -->
<!-- Task -->
<g id="e28" class="edge">
<title>n25&#45;&gt;n17:w</title>
<path fill="none" stroke="black" d="M309.23,-89.6C316.58,-90.18 355.65,-93.17 389.6,-93.48"/>
<polygon fill="black" stroke="black" points="389.99,-95.23 395,-93.5 390.01,-91.73 389.99,-95.23"/>
<text text-anchor="middle" x="352" y="-97.3" font-family="Serif" font-size="14.00">Task</text>
</g>
</g>
</svg>
