<?xml version="1.0" encoding="UTF-8" standalone="no"?>
<!DOCTYPE svg PUBLIC "-//W3C//DTD SVG 1.1//EN"
 "http://www.w3.org/Graphics/SVG/1.1/DTD/svg11.dtd">
<!-- Generated by graphviz version 2.44.1 (20200629.0846)
 -->
<!-- Title: G Pages: 1 -->
<svg width="565pt" height="169pt"
 viewBox="0.00 0.00 565.00 168.50" xmlns="http://www.w3.org/2000/svg" xmlns:xlink="http://www.w3.org/1999/xlink">
<g id="graph0" class="graph" transform="scale(1 1) rotate(0) translate(4 164.5)">
<title>G</title>
<polygon fill="white" stroke="transparent" points="-4,4 -4,-164.5 561,-164.5 561,4 -4,4"/>
<!-- n1p1 -->
<!-- n8 -->
<!-- junction -->
<g id="n8" class="node">
<title>n8</title>
<ellipse fill="black" stroke="black" cx="143" cy="-104.5" rx="2" ry="2"/>
</g>
<!-- n1p1&#45;&gt;n8 -->
<!-- Task -->
<g id="e1" class="edge">
<title>n1p1:e&#45;&gt;n8</title>
<path fill="none" stroke="black" d="M1,-104.5C53.12,-104.5 116.07,-104.5 135.79,-104.5"/>
<polygon fill="black" stroke="black" points="135.87,-106.25 140.87,-104.5 135.87,-102.75 135.87,-106.25"/>
<text text-anchor="middle" x="48.5" y="-108.3" font-family="Serif" font-size="14.00">Task</text>
</g>
<!-- n2p1 -->
<!-- n3 -->
<!-- observed -->
<g id="n3" class="node">
<title>n3</title>
<polygon fill="none" stroke="black" points="19.5,-24.5 19.5,-49.5 78.5,-49.5 78.5,-24.5 19.5,-24.5"/>
<text text-anchor="start" x="24.5" y="-33.3" font-family="Serif" font-size="14.00">observed</text>
</g>
<!-- n9 -->
<!-- junction -->
<g id="n9" class="node">
<title>n9</title>
<ellipse fill="black" stroke="black" cx="143" cy="-36.5" rx="2" ry="2"/>
</g>
<!-- n3&#45;&gt;n9 -->
<!-- Bool -->
<g id="e2" class="edge">
<title>n3:e&#45;&gt;n9</title>
<path fill="none" stroke="black" d="M78,-36.5C98.81,-36.5 123.42,-36.5 135.13,-36.5"/>
<polygon fill="black" stroke="black" points="135.42,-38.25 140.42,-36.5 135.42,-34.75 135.42,-38.25"/>
<text text-anchor="middle" x="109.5" y="-40.3" font-family="Serif" font-size="14.00">Bool</text>
</g>
<!-- n4 -->
<!-- perform -->
<g id="n4" class="node">
<title>n4</title>
<polygon fill="none" stroke="black" points="208.5,-112.5 208.5,-160.5 263.5,-160.5 263.5,-112.5 208.5,-112.5"/>
<text text-anchor="start" x="213.5" y="-132.8" font-family="Serif" font-size="14.00">perform</text>
</g>
<!-- n7 -->
<!-- neq -->
<g id="n7" class="node">
<title>n7</title>
<polygon fill="none" stroke="black" points="463,-82.5 463,-130.5 493,-130.5 493,-82.5 463,-82.5"/>
<text text-anchor="start" x="468" y="-102.8" font-family="Serif" font-size="14.00">neq</text>
</g>
<!-- n4&#45;&gt;n7 -->
<!-- Number -->
<g id="e3" class="edge">
<title>n4:e&#45;&gt;n7:w</title>
<path fill="none" stroke="black" d="M263,-136.5C350.51,-136.5 372.89,-119.2 457.85,-118.52"/>
<polygon fill="black" stroke="black" points="458.01,-120.27 463,-118.5 457.99,-116.77 458.01,-120.27"/>
<text text-anchor="middle" x="353.5" y="-136.3" font-family="Serif" font-size="14.00">Number</text>
</g>
<!-- n5 -->
<!-- neg -->
<g id="n5" class="node">
<title>n5</title>
<polygon fill="none" stroke="black" points="220.5,0.5 220.5,-24.5 250.5,-24.5 250.5,0.5 220.5,0.5"/>
<text text-anchor="start" x="225.5" y="-8.3" font-family="Serif" font-size="14.00">neg</text>
</g>
<!-- n6 -->
<!-- perform -->
<g id="n6" class="node">
<title>n6</title>
<polygon fill="none" stroke="black" points="326.5,-56.5 326.5,-104.5 381.5,-104.5 381.5,-56.5 326.5,-56.5"/>
<text text-anchor="start" x="331.5" y="-76.8" font-family="Serif" font-size="14.00">perform</text>
</g>
<!-- n5&#45;&gt;n6 -->
<!-- Bool -->
<g id="e4" class="edge">
<title>n5:e&#45;&gt;n6:w</title>
<path fill="none" stroke="black" d="M251.5,-11.5C270.72,-11.5 300.1,-59.94 320.91,-67.51"/>
<polygon fill="black" stroke="black" points="320.76,-69.26 326,-68.5 321.43,-65.83 320.76,-69.26"/>
<text text-anchor="middle" x="294.5" y="-63.3" font-family="Serif" font-size="14.00">Bool</text>
</g>
<!-- n6&#45;&gt;n7 -->
<!-- Number -->
<g id="e5" class="edge">
<title>n6:e&#45;&gt;n7:w</title>
<path fill="none" stroke="black" d="M381,-80.5C416.24,-80.5 425.21,-93.22 457.99,-94.41"/>
<polygon fill="black" stroke="black" points="457.97,-96.16 463,-94.5 458.03,-92.66 457.97,-96.16"/>
<text text-anchor="middle" x="422" y="-96.3" font-family="Serif" font-size="14.00">Number</text>
</g>
<!-- n7&#45;&gt;n2p1 -->
<!-- Bool -->
<g id="e6" class="edge">
<title>n7:e&#45;&gt;n2p1:w</title>
<path fill="none" stroke="black" d="M493,-106.5C519.25,-106.5 527.04,-106.5 550.99,-106.5"/>
<polygon fill="black" stroke="black" points="551,-108.25 556,-106.5 551,-104.75 551,-108.25"/>
<text text-anchor="middle" x="524.5" y="-110.3" font-family="Serif" font-size="14.00">Bool</text>
</g>
<!-- n8&#45;&gt;n4 -->
<!-- Task -->
<g id="e7" class="edge">
<title>n8&#45;&gt;n4:w</title>
<path fill="none" stroke="black" d="M144.76,-105.59C149.31,-111.99 173.82,-144.64 202.91,-148.19"/>
<polygon fill="black" stroke="black" points="202.9,-149.94 208,-148.5 203.12,-146.45 202.9,-149.94"/>
<text text-anchor="middle" x="176.5" y="-148.3" font-family="Serif" font-size="14.00">Task</text>
</g>
<!-- n8&#45;&gt;n6 -->
<!-- Task -->
<g id="e8" class="edge">
<title>n8&#45;&gt;n6:w</title>
<path fill="none" stroke="black" d="M145.56,-103.96C152.63,-101.53 182.54,-91.63 208,-88.5 258.35,-82.3 272.59,-91.83 320.9,-92.47"/>
<polygon fill="black" stroke="black" points="320.99,-94.22 326,-92.5 321.01,-90.72 320.99,-94.22"/>
<text text-anchor="middle" x="235.5" y="-92.3" font-family="Serif" font-size="14.00">Task</text>
</g>
<!-- n9&#45;&gt;n4 -->
<!-- Bool -->
<g id="e9" class="edge">
<title>n9&#45;&gt;n4:w</title>
<path fill="none" stroke="black" d="M144.74,-37.74C150.41,-47.27 187.24,-108.64 203.17,-121.96"/>
<polygon fill="black" stroke="black" points="202.76,-123.72 208,-124.5 204.39,-120.62 202.76,-123.72"/>
<text text-anchor="middle" x="176.5" y="-108.3" font-family="Serif" font-size="14.00">Bool</text>
</g>
<!-- n9&#45;&gt;n5 -->
<!-- Bool -->
<g id="e10" class="edge">
<title>n9&#45;&gt;n5:w</title>
<path fill="none" stroke="black" d="M144.71,-34.8C146.74,-30.18 153.09,-17.4 163,-12.5 183.93,-2.15 193.07,-10.18 214.43,-11.36"/>
<polygon fill="black" stroke="black" points="214.45,-13.11 219.5,-11.5 214.55,-9.61 214.45,-13.11"/>
<text text-anchor="middle" x="176.5" y="-16.3" font-family="Serif" font-size="14.00">Bool</text>
</g>
</g>
</svg>
