<?xml version="1.0" encoding="UTF-8" standalone="no"?>
<!DOCTYPE svg PUBLIC "-//W3C//DTD SVG 1.1//EN"
 "http://www.w3.org/Graphics/SVG/1.1/DTD/svg11.dtd">
<!-- Generated by graphviz version 2.44.1 (20200629.0846)
 -->
<!-- Title: G Pages: 1 -->
<svg width="681pt" height="288pt"
 viewBox="0.00 0.00 681.00 288.00" xmlns="http://www.w3.org/2000/svg" xmlns:xlink="http://www.w3.org/1999/xlink">
<g id="graph0" class="graph" transform="scale(1 1) rotate(0) translate(4 284)">
<title>G</title>
<polygon fill="white" stroke="transparent" points="-4,4 -4,-284 677,-284 677,4 -4,4"/>
<!-- n2p1 -->
<!-- n3 -->
<!-- observed -->
<g id="n3" class="node">
<title>n3</title>
<polygon fill="none" stroke="black" points="0.5,-139 0.5,-164 59.5,-164 59.5,-139 0.5,-139"/>
<text text-anchor="start" x="5.5" y="-147.8" font-family="Serif" font-size="14.00">observed</text>
</g>
<!-- n14 -->
<!-- junction -->
<g id="n14" class="node">
<title>n14</title>
<ellipse fill="black" stroke="black" cx="124" cy="-151" rx="2" ry="2"/>
</g>
<!-- n3&#45;&gt;n14 -->
<!-- Bool -->
<g id="e1" class="edge">
<title>n3:e&#45;&gt;n14</title>
<path fill="none" stroke="black" d="M59,-151C79.81,-151 104.42,-151 116.13,-151"/>
<polygon fill="black" stroke="black" points="116.42,-152.75 121.42,-151 116.42,-149.25 116.42,-152.75"/>
<text text-anchor="middle" x="90.5" y="-154.8" font-family="Serif" font-size="14.00">Bool</text>
</g>
<!-- n4 -->
<!-- neg -->
<g id="n4" class="node">
<title>n4</title>
<polygon fill="none" stroke="black" points="189,-139 189,-164 219,-164 219,-139 189,-139"/>
<text text-anchor="start" x="194" y="-147.8" font-family="Serif" font-size="14.00">neg</text>
</g>
<!-- n15 -->
<!-- junction -->
<g id="n15" class="node">
<title>n15</title>
<ellipse fill="black" stroke="black" cx="284" cy="-151" rx="2" ry="2"/>
</g>
<!-- n4&#45;&gt;n15 -->
<!-- Bool -->
<g id="e2" class="edge">
<title>n4:e&#45;&gt;n15</title>
<path fill="none" stroke="black" d="M219,-151C239.81,-151 264.42,-151 276.13,-151"/>
<polygon fill="black" stroke="black" points="276.42,-152.75 281.42,-151 276.42,-149.25 276.42,-152.75"/>
<text text-anchor="middle" x="250.5" y="-154.8" font-family="Serif" font-size="14.00">Bool</text>
</g>
<!-- n5 -->
<!-- t1 -->
<g id="n5" class="node">
<title>n5</title>
<polygon fill="none" stroke="black" points="194,-249 194,-274 215,-274 215,-249 194,-249"/>
<text text-anchor="start" x="199" y="-257.8" font-family="Serif" font-size="14.00">t1</text>
</g>
<!-- n16 -->
<!-- junction -->
<g id="n16" class="node">
<title>n16</title>
<ellipse fill="black" stroke="black" cx="284" cy="-261" rx="2" ry="2"/>
</g>
<!-- n5&#45;&gt;n16 -->
<!-- Task -->
<g id="e3" class="edge">
<title>n5:e&#45;&gt;n16</title>
<path fill="none" stroke="black" d="M216,-261C238.17,-261 264.47,-261 276.46,-261"/>
<polygon fill="black" stroke="black" points="276.72,-262.75 281.72,-261 276.72,-259.25 276.72,-262.75"/>
<text text-anchor="middle" x="250.5" y="-264.8" font-family="Serif" font-size="14.00">Task</text>
</g>
<!-- n6 -->
<!-- perform -->
<g id="n6" class="node">
<title>n6</title>
<polygon fill="none" stroke="black" points="349.5,-230 349.5,-278 404.5,-278 404.5,-230 349.5,-230"/>
<text text-anchor="start" x="354.5" y="-250.3" font-family="Serif" font-size="14.00">perform</text>
</g>
<!-- n8 -->
<!-- neq -->
<g id="n8" class="node">
<title>n8</title>
<polygon fill="none" stroke="black" points="486,-176 486,-224 516,-224 516,-176 486,-176"/>
<text text-anchor="start" x="491" y="-196.3" font-family="Serif" font-size="14.00">neq</text>
</g>
<!-- n6&#45;&gt;n8 -->
<!-- Number -->
<g id="e4" class="edge">
<title>n6:e&#45;&gt;n8:w</title>
<path fill="none" stroke="black" d="M404,-254C443.19,-254 444.97,-215.53 480.94,-212.23"/>
<polygon fill="black" stroke="black" points="481.08,-213.97 486,-212 480.93,-210.47 481.08,-213.97"/>
<text text-anchor="middle" x="445" y="-253.8" font-family="Serif" font-size="14.00">Number</text>
</g>
<!-- n7 -->
<!-- perform -->
<g id="n7" class="node">
<title>n7</title>
<polygon fill="none" stroke="black" points="349.5,-164 349.5,-212 404.5,-212 404.5,-164 349.5,-164"/>
<text text-anchor="start" x="354.5" y="-184.3" font-family="Serif" font-size="14.00">perform</text>
</g>
<!-- n7&#45;&gt;n8 -->
<!-- Number -->
<g id="e5" class="edge">
<title>n7:e&#45;&gt;n8:w</title>
<path fill="none" stroke="black" d="M404,-188C438.59,-188 448.56,-188 480.65,-188"/>
<polygon fill="black" stroke="black" points="481,-189.75 486,-188 481,-186.25 481,-189.75"/>
<text text-anchor="middle" x="445" y="-191.8" font-family="Serif" font-size="14.00">Number</text>
</g>
<!-- n13 -->
<!-- and -->
<g id="n13" class="node">
<title>n13</title>
<polygon fill="none" stroke="black" points="579,-125 579,-173 609,-173 609,-125 579,-125"/>
<text text-anchor="start" x="584" y="-145.3" font-family="Serif" font-size="14.00">and</text>
</g>
<!-- n8&#45;&gt;n13 -->
<!-- Bool -->
<g id="e6" class="edge">
<title>n8:e&#45;&gt;n13:w</title>
<path fill="none" stroke="black" d="M516,-200C547.13,-200 546.28,-165.15 573.91,-161.34"/>
<polygon fill="black" stroke="black" points="574.13,-163.08 579,-161 573.9,-159.58 574.13,-163.08"/>
<text text-anchor="middle" x="547.5" y="-197.8" font-family="Serif" font-size="14.00">Bool</text>
</g>
<!-- n9 -->
<!-- t2 -->
<g id="n9" class="node">
<title>n9</title>
<polygon fill="none" stroke="black" points="194,-13 194,-38 215,-38 215,-13 194,-13"/>
<text text-anchor="start" x="199" y="-21.8" font-family="Serif" font-size="14.00">t2</text>
</g>
<!-- n17 -->
<!-- junction -->
<g id="n17" class="node">
<title>n17</title>
<ellipse fill="black" stroke="black" cx="284" cy="-36" rx="2" ry="2"/>
</g>
<!-- n9&#45;&gt;n17 -->
<!-- Task -->
<g id="e7" class="edge">
<title>n9:e&#45;&gt;n17</title>
<path fill="none" stroke="black" d="M216,-25C237.45,-25 243,-25.64 264,-30 268.51,-30.94 273.48,-32.52 277.2,-33.83"/>
<polygon fill="black" stroke="black" points="276.69,-35.51 281.99,-35.6 277.91,-32.23 276.69,-35.51"/>
<text text-anchor="middle" x="250.5" y="-33.8" font-family="Serif" font-size="14.00">Task</text>
</g>
<!-- n10 -->
<!-- perform -->
<g id="n10" class="node">
<title>n10</title>
<polygon fill="none" stroke="black" points="349.5,-66 349.5,-114 404.5,-114 404.5,-66 349.5,-66"/>
<text text-anchor="start" x="354.5" y="-86.3" font-family="Serif" font-size="14.00">perform</text>
</g>
<!-- n12 -->
<!-- neq -->
<g id="n12" class="node">
<title>n12</title>
<polygon fill="none" stroke="black" points="486,-54 486,-102 516,-102 516,-54 486,-54"/>
<text text-anchor="start" x="491" y="-74.3" font-family="Serif" font-size="14.00">neq</text>
</g>
<!-- n10&#45;&gt;n12 -->
<!-- Number -->
<g id="e8" class="edge">
<title>n10:e&#45;&gt;n12:w</title>
<path fill="none" stroke="black" d="M404,-90C438.59,-90 448.56,-90 480.65,-90"/>
<polygon fill="black" stroke="black" points="481,-91.75 486,-90 481,-88.25 481,-91.75"/>
<text text-anchor="middle" x="445" y="-93.8" font-family="Serif" font-size="14.00">Number</text>
</g>
<!-- n11 -->
<!-- perform -->
<g id="n11" class="node">
<title>n11</title>
<polygon fill="none" stroke="black" points="349.5,0 349.5,-48 404.5,-48 404.5,0 349.5,0"/>
<text text-anchor="start" x="354.5" y="-20.3" font-family="Serif" font-size="14.00">perform</text>
</g>
<!-- n11&#45;&gt;n12 -->
<!-- Number -->
<g id="e9" class="edge">
<title>n11:e&#45;&gt;n12:w</title>
<path fill="none" stroke="black" d="M404,-24C443.19,-24 444.97,-62.47 480.94,-65.77"/>
<polygon fill="black" stroke="black" points="480.93,-67.53 486,-66 481.08,-64.03 480.93,-67.53"/>
<text text-anchor="middle" x="445" y="-66.8" font-family="Serif" font-size="14.00">Number</text>
</g>
<!-- n12&#45;&gt;n13 -->
<!-- Bool -->
<g id="e10" class="edge">
<title>n12:e&#45;&gt;n13:w</title>
<path fill="none" stroke="black" d="M516,-78C552.56,-78 541.81,-131.6 573.94,-136.62"/>
<polygon fill="black" stroke="black" points="573.88,-138.37 579,-137 574.14,-134.88 573.88,-138.37"/>
<text text-anchor="middle" x="547.5" y="-132.8" font-family="Serif" font-size="14.00">Bool</text>
</g>
<!-- n13&#45;&gt;n2p1 -->
<!-- Bool -->
<g id="e11" class="edge">
<title>n13:e&#45;&gt;n2p1:w</title>
<path fill="none" stroke="black" d="M609,-149C635.25,-149 643.04,-149 666.99,-149"/>
<polygon fill="black" stroke="black" points="667,-150.75 672,-149 667,-147.25 667,-150.75"/>
<text text-anchor="middle" x="640.5" y="-152.8" font-family="Serif" font-size="14.00">Bool</text>
</g>
<!-- n14&#45;&gt;n4 -->
<!-- Bool -->
<g id="e12" class="edge">
<title>n14&#45;&gt;n4:w</title>
<path fill="none" stroke="black" d="M126.58,-151C133.3,-151 160.18,-151 183.98,-151"/>
<polygon fill="black" stroke="black" points="184,-152.75 189,-151 184,-149.25 184,-152.75"/>
<text text-anchor="middle" x="157.5" y="-154.8" font-family="Serif" font-size="14.00">Bool</text>
</g>
<!-- n14&#45;&gt;n6 -->
<!-- Bool -->
<g id="e13" class="edge">
<title>n14&#45;&gt;n6:w</title>
<path fill="none" stroke="black" d="M125.87,-152.24C128.31,-155.64 135.6,-165.15 144,-170 218.52,-213 258.72,-173.35 331,-220 339.79,-225.67 337.7,-237.04 343.9,-240.78"/>
<polygon fill="black" stroke="black" points="343.73,-242.54 349,-242 344.55,-239.13 343.73,-242.54"/>
<text text-anchor="middle" x="250.5" y="-198.8" font-family="Serif" font-size="14.00">Bool</text>
</g>
<!-- n14&#45;&gt;n10 -->
<!-- Bool -->
<g id="e14" class="edge">
<title>n14&#45;&gt;n10:w</title>
<path fill="none" stroke="black" d="M126.09,-150.42C136.91,-144.7 225.84,-98.45 304,-81 321.73,-77.04 327.82,-77.79 343.73,-77.97"/>
<polygon fill="black" stroke="black" points="343.99,-79.72 349,-78 344.01,-76.22 343.99,-79.72"/>
<text text-anchor="middle" x="250.5" y="-104.8" font-family="Serif" font-size="14.00">Bool</text>
</g>
<!-- n15&#45;&gt;n7 -->
<!-- Bool -->
<g id="e15" class="edge">
<title>n15&#45;&gt;n7:w</title>
<path fill="none" stroke="black" d="M286.5,-152.07C292.89,-156.56 318.75,-173.66 343.97,-175.78"/>
<polygon fill="black" stroke="black" points="343.93,-177.53 349,-176 344.08,-174.04 343.93,-177.53"/>
<text text-anchor="middle" x="317.5" y="-176.8" font-family="Serif" font-size="14.00">Bool</text>
</g>
<!-- n15&#45;&gt;n11 -->
<!-- Bool -->
<g id="e16" class="edge">
<title>n15&#45;&gt;n11:w</title>
<path fill="none" stroke="black" d="M286.43,-150.4C292.86,-147.6 319.33,-135.21 331,-116 342.13,-97.68 328.36,-25.96 343.82,-13.77"/>
<polygon fill="black" stroke="black" points="344.83,-15.27 349,-12 343.7,-11.96 344.83,-15.27"/>
<text text-anchor="middle" x="317.5" y="-143.8" font-family="Serif" font-size="14.00">Bool</text>
</g>
<!-- n16&#45;&gt;n6 -->
<!-- Task -->
<g id="e17" class="edge">
<title>n16&#45;&gt;n6:w</title>
<path fill="none" stroke="black" d="M286.58,-261.21C293.28,-262.11 320.12,-265.5 343.96,-265.95"/>
<polygon fill="black" stroke="black" points="343.98,-267.7 349,-266 344.02,-264.2 343.98,-267.7"/>
<text text-anchor="middle" x="317.5" y="-268.8" font-family="Serif" font-size="14.00">Task</text>
</g>
<!-- n16&#45;&gt;n7 -->
<!-- Task -->
<g id="e18" class="edge">
<title>n16&#45;&gt;n7:w</title>
<path fill="none" stroke="black" d="M285.64,-259.49C289.55,-250.58 311.04,-204.98 343.67,-200.38"/>
<polygon fill="black" stroke="black" points="344.14,-202.1 349,-200 343.89,-198.61 344.14,-202.1"/>
<text text-anchor="middle" x="317.5" y="-229.8" font-family="Serif" font-size="14.00">Task</text>
</g>
<!-- n17&#45;&gt;n10 -->
<!-- Task -->
<g id="e19" class="edge">
<title>n17&#45;&gt;n10:w</title>
<path fill="none" stroke="black" d="M285.61,-37.63C289.31,-47.32 309.9,-97.02 343.89,-101.65"/>
<polygon fill="black" stroke="black" points="343.89,-103.41 349,-102 344.13,-99.92 343.89,-103.41"/>
<text text-anchor="middle" x="317.5" y="-101.8" font-family="Serif" font-size="14.00">Task</text>
</g>
<!-- n17&#45;&gt;n11 -->
<!-- Task -->
<g id="e20" class="edge">
<title>n17&#45;&gt;n11:w</title>
<path fill="none" stroke="black" d="M286.58,-36C293.3,-36 320.18,-36 343.98,-36"/>
<polygon fill="black" stroke="black" points="344,-37.75 349,-36 344,-34.25 344,-37.75"/>
<text text-anchor="middle" x="317.5" y="-39.8" font-family="Serif" font-size="14.00">Task</text>
</g>
</g>
</svg>
